<?xml version="1.0" standalone="no"?>
<!DOCTYPE svg PUBLIC "-//W3C//DTD SVG 20010904//EN"
 "http://www.w3.org/TR/2001/REC-SVG-20010904/DTD/svg10.dtd">
<svg version="1.0" xmlns="http://www.w3.org/2000/svg"
 width="500.000000pt" height="500.000000pt" viewBox="0 0 500.000000 500.000000"
 preserveAspectRatio="xMidYMid meet">

<g transform="translate(0.000000,500.000000) scale(0.100000,-0.100000)"
fill="#000000" stroke="none">
<path d="M2265 4600 c-125 -13 -284 -51 -434 -102 -336 -114 -576 -262 -816
-503 -120 -119 -168 -178 -269 -325 -380 -557 -460 -1303 -209 -1939 52 -132
122 -276 130 -268 5 6 -6 129 -28 306 -5 46 -8 85 -6 87 14 14 47 -244 47
-362 0 -34 8 -63 25 -94 14 -25 32 -60 42 -79 15 -30 18 -32 24 -15 4 10 8 32
8 48 1 21 14 41 46 72 55 54 101 77 202 105 93 26 263 33 285 11 11 -11 4 -13
-37 -9 -131 10 -311 -35 -398 -99 -50 -36 -60 -59 -13 -28 36 23 45 10 15 -23
-13 -15 -2 -8 24 14 27 23 72 50 100 59 29 9 65 25 82 36 20 12 49 18 85 18
60 0 210 -23 250 -38 22 -8 19 -10 -30 -18 l-55 -8 62 -6 c81 -9 115 -24 138
-63 l18 -32 -24 22 c-40 36 -93 53 -161 52 l-63 -2 52 -6 c58 -7 82 -21 37
-21 -16 0 -45 -8 -65 -18 -19 -10 -57 -26 -84 -36 -103 -39 -201 -120 -260
-215 -31 -51 -48 -44 -48 18 0 27 9 55 27 83 l27 43 -30 -32 c-56 -60 -61
-136 -11 -163 11 -6 20 -17 20 -25 0 -8 5 -15 10 -15 6 0 10 4 10 8 0 5 25 47
55 93 31 46 42 68 26 49 -17 -19 -43 -54 -58 -78 -35 -55 -43 -36 -9 22 37 63
120 134 206 175 63 30 88 37 157 39 61 3 94 -1 130 -14 75 -27 100 -55 44 -46
-16 2 -37 -1 -48 -7 -15 -8 -9 -10 30 -11 46 0 51 -3 115 -67 37 -36 57 -61
45 -55 -65 35 -180 2 -315 -89 -45 -31 -63 -39 -66 -29 -3 8 -24 35 -48 60
-41 44 -42 46 -26 67 19 25 156 93 186 93 11 0 17 3 13 6 -9 9 -118 -16 -157
-36 -61 -32 -159 -134 -186 -195 -13 -31 -21 -61 -18 -67 4 -6 17 17 30 52 12
34 34 74 48 89 26 27 66 39 66 19 0 -6 16 -28 36 -50 19 -22 33 -46 30 -54
-11 -29 18 -24 72 14 76 52 140 84 154 76 7 -5 8 -3 3 6 -6 10 -4 12 9 7 9 -4
15 -3 12 2 -3 5 8 15 25 22 25 10 43 10 87 1 81 -17 124 -62 59 -62 -135 0
-323 -141 -367 -276 -19 -56 -4 -51 26 8 35 70 87 133 137 166 23 15 49 35 59
44 22 22 75 31 150 26 57 -4 64 -7 94 -43 18 -22 30 -43 28 -47 -3 -4 -23 1
-46 13 -37 19 -39 21 -21 34 17 12 16 14 -12 21 -32 8 -131 -14 -188 -41 -60
-28 -217 -201 -217 -237 0 -16 19 -7 25 12 11 35 79 118 133 160 51 41 148 80
195 80 20 0 19 -2 -8 -20 -33 -22 -21 -27 19 -9 20 10 30 9 51 -5 16 -10 24
-23 21 -32 -4 -9 2 -14 17 -14 12 -1 33 -7 45 -14 23 -12 22 -14 -45 -49 -37
-19 -89 -51 -114 -69 -48 -35 -139 -132 -139 -148 0 -21 17 -6 58 51 29 42 64
74 114 106 116 75 176 89 219 53 l24 -20 -40 6 c-70 10 -137 -24 -242 -122
-51 -47 -93 -92 -93 -100 0 -22 20 -16 29 9 20 51 217 204 238 184 2 -3 -11
-15 -29 -28 -18 -13 -42 -31 -52 -41 -11 -10 -34 -28 -51 -40 -27 -18 -85 -94
-85 -110 0 -3 21 -13 46 -23 37 -14 48 -15 54 -5 6 10 9 8 13 -6 3 -14 5 -11
6 8 0 16 14 42 31 60 l30 33 -20 -45 c-23 -53 -26 -90 -6 -90 8 0 18 23 26 63
11 49 21 70 51 100 45 46 69 49 36 4 -37 -49 -57 -93 -56 -124 0 -25 2 -24 13
12 13 43 66 129 74 121 6 -6 -15 -99 -35 -154 -12 -32 -13 -46 -5 -54 9 -9 12
-8 12 4 0 22 19 72 25 66 3 -2 -1 -19 -7 -36 -10 -25 -10 -34 0 -44 9 -9 12
-7 12 12 l0 24 16 -22 c16 -23 41 -31 28 -9 -4 7 -3 9 2 4 5 -5 9 -14 9 -20 0
-7 12 -12 26 -13 15 -1 34 -4 43 -7 35 -14 13 4 -49 38 -82 46 -84 72 -8 94
24 7 32 5 41 -9 6 -10 31 -28 56 -40 25 -12 46 -26 46 -31 0 -14 -5 -12 -71
31 -70 45 -77 47 -86 23 -4 -10 2 -23 18 -36 32 -26 159 -89 159 -80 0 5 8 13
19 20 29 18 99 -3 103 -31 3 -18 10 -21 46 -22 23 0 42 3 42 7 0 5 15 11 33
14 24 5 43 1 70 -15 38 -22 51 -18 20 6 -10 8 4 5 30 -7 70 -30 81 -17 17 19
-79 44 -86 49 -80 55 3 3 32 -8 65 -24 37 -18 69 -27 83 -24 12 3 32 -1 43 -9
16 -11 27 -11 49 -3 22 8 35 8 53 -2 20 -10 33 -9 85 8 33 12 68 18 76 15 28
-11 17 5 -14 21 -17 9 -28 20 -24 26 3 6 0 9 -7 8 -8 -2 -25 1 -38 5 -17 6
-20 10 -10 16 7 5 25 2 41 -6 15 -8 31 -15 35 -15 17 -2 43 -20 39 -27 -2 -4
17 -9 42 -9 44 -2 46 -1 27 13 -11 8 -27 20 -35 25 -13 8 -12 11 4 24 26 20
36 19 36 -3 0 -19 37 -42 69 -42 16 0 111 29 120 36 2 2 -4 13 -14 24 -10 11
-13 20 -7 20 7 0 12 -5 12 -11 0 -5 4 -8 9 -4 5 3 12 1 16 -5 3 -5 14 -10 23
-10 13 0 12 5 -8 20 l-25 20 31 0 c16 0 35 -5 40 -10 7 -7 14 -3 22 12 22 43
94 234 169 443 41 116 97 272 124 348 57 159 82 212 107 226 11 6 58 15 106
21 107 13 159 23 289 54 56 14 140 32 187 41 194 37 186 34 199 62 6 14 10 27
8 29 -2 2 -125 -21 -273 -50 -148 -30 -327 -64 -399 -76 -178 -30 -185 -33
-229 -133 -21 -45 -54 -100 -74 -122 -20 -22 -27 -31 -14 -21 29 25 28 16 -7
-52 -16 -31 -37 -83 -47 -116 -20 -65 -21 -64 -34 25 l-9 64 2 -83 c1 -45 -1
-82 -5 -82 -14 0 -32 86 -33 155 0 61 5 80 38 147 58 117 178 208 292 222 120
15 255 40 255 47 0 4 -4 11 -10 14 -5 3 -10 2 -10 -3 0 -4 -57 -8 -127 -8 -71
1 -148 -2 -173 -6 -42 -8 -44 -7 -25 8 46 37 110 57 183 58 39 0 72 2 72 3 0
1 -15 7 -32 12 l-33 9 35 1 c39 1 74 -19 112 -63 l25 -29 263 51 c144 28 265
54 268 56 10 10 71 283 88 396 51 327 1 745 -126 1065 -170 425 -483 800 -852
1020 -273 163 -591 274 -870 304 -108 12 -364 12 -473 1z m367 -61 c48 -6 99
-15 115 -20 25 -8 24 -9 -10 -4 -185 21 -317 28 -339 17 -20 -11 -17 -12 25
-7 41 4 230 -13 347 -31 26 -4 31 -3 20 5 -23 16 2 14 68 -6 51 -15 54 -17 32
-24 l-25 -7 25 -1 c40 -2 83 -34 124 -94 22 -32 43 -57 48 -57 4 0 8 -6 8 -13
0 -7 26 -49 59 -93 32 -43 70 -100 85 -125 l27 -47 -43 15 c-61 22 -185 42
-243 41 -50 -1 -50 -1 15 -9 89 -11 210 -39 240 -54 24 -12 69 -55 58 -55 -3
0 -52 10 -109 21 -121 25 -214 22 -349 -12 -163 -40 -366 -153 -511 -283 -84
-76 -106 -79 -33 -5 66 67 192 162 282 211 40 22 71 42 68 45 -2 2 -57 -27
-121 -66 -65 -39 -113 -62 -108 -53 4 9 8 46 7 82 0 75 -17 113 -95 217 -104
137 -184 204 -269 226 l-53 14 37 28 36 28 44 -17 c25 -9 62 -30 83 -45 56
-41 172 -181 177 -215 1 -7 23 -45 50 -83 26 -39 52 -86 56 -104 8 -34 8 -34
9 -5 1 41 -139 274 -214 354 -33 35 -83 78 -112 94 -29 17 -53 32 -53 34 0 3
66 35 100 47 12 4 12 6 -2 6 -10 1 -52 -15 -93 -34 -42 -20 -81 -33 -87 -29
-6 4 -8 3 -5 -3 4 -6 -9 -25 -28 -42 l-36 -31 32 0 c85 0 162 -52 271 -182 84
-99 125 -165 139 -220 19 -80 7 -109 -84 -206 -46 -48 -93 -104 -106 -124 -12
-21 -25 -38 -27 -38 -2 0 -4 31 -4 68 l0 69 40 12 c105 31 163 174 113 278
-26 55 -66 75 -138 69 l-61 -5 -41 54 c-23 30 -52 59 -65 66 -12 7 6 -19 40
-57 73 -78 76 -66 -38 -138 -34 -21 -59 -40 -57 -43 3 -2 36 16 73 40 138 87
179 93 235 37 25 -25 29 -36 29 -87 -1 -83 -41 -167 -95 -195 -19 -10 -19 -9
2 13 38 41 66 119 67 186 0 34 -4 67 -10 73 -7 7 -9 -7 -6 -47 3 -38 -1 -70
-11 -93 -12 -26 -16 -30 -16 -14 -1 26 -9 34 -27 27 -10 -4 -11 -10 -3 -24 8
-15 6 -19 -6 -19 -9 0 -13 5 -10 10 3 6 2 10 -4 10 -5 0 -13 -6 -17 -12 -10
-16 -22 23 -23 78 -1 34 3 43 24 52 35 16 43 15 48 -5 3 -11 5 -7 6 10 1 26
-1 27 -36 24 -46 -3 -63 -30 -63 -99 0 -64 13 -93 49 -108 26 -10 29 -15 19
-27 -32 -38 -48 -37 -97 10 -25 24 -73 59 -106 77 -33 19 -61 37 -63 41 -2 4
-10 5 -18 2 -11 -4 -12 -9 -3 -19 6 -8 8 -14 3 -14 -18 1 -51 36 -63 67 -7 18
-20 38 -29 45 -11 9 -9 1 6 -23 27 -45 27 -54 2 -103 -12 -21 -28 -76 -37
-122 -13 -75 -17 -83 -31 -72 -13 11 -14 11 -8 0 4 -7 16 -16 26 -20 16 -6 16
-10 6 -24 -12 -16 -15 -14 -39 22 -14 22 -22 40 -17 40 5 0 7 8 6 18 -16 86
-15 114 4 193 27 112 26 144 -4 173 l-25 22 25 42 c25 41 42 56 30 27 -10 -26
-1 -17 63 65 34 44 66 80 71 80 5 0 -12 -38 -36 -85 -48 -90 -53 -110 -12 -47
24 35 29 38 69 35 42 -2 42 -2 11 6 -18 5 -35 11 -38 13 -12 13 51 120 87 149
22 17 38 33 36 36 -6 6 -87 -28 -84 -35 2 -7 -5 -15 -53 -72 -18 -21 -21 -22
-15 -5 5 15 3 17 -5 9 -6 -6 -13 -20 -14 -30 -2 -11 -8 -19 -14 -19 -18 0
-123 -143 -165 -224 l-38 -76 5 50 c4 30 14 58 26 70 11 11 51 61 89 110 37
50 94 116 125 147 52 52 145 108 179 108 8 0 39 11 68 25 46 21 172 54 259 68
52 9 188 7 272 -4z m449 -216 c13 -16 12 -17 -3 -4 -17 13 -22 21 -14 21 2 0
10 -8 17 -17z m55 -55 l29 -33 -32 29 c-31 28 -38 36 -30 36 2 0 16 -15 33
-32z m27 -66 c40 -51 103 -162 93 -162 -2 0 -22 31 -45 69 -22 38 -57 90 -77
116 -19 26 -31 44 -25 41 6 -4 30 -33 54 -64z m-1374 21 c-40 -47 -42 -49 -34
-33 10 19 47 60 53 60 3 0 -5 -12 -19 -27z m1451 -93 c21 -36 46 -90 56 -120
9 -30 26 -68 36 -85 l20 -30 -25 29 c-14 16 -35 58 -46 93 -12 36 -44 99 -71
141 -28 41 -41 67 -29 56 11 -10 38 -48 59 -84z m274 -74 c-3 -8 -12 -12 -20
-9 -21 8 -17 23 6 23 13 0 18 -5 14 -14z m-1790 -43 c-3 -21 -20 -69 -36 -107
-51 -118 -63 -201 -49 -346 14 -149 38 -210 125 -312 31 -37 65 -86 75 -110
l20 -43 0 31 c1 33 19 48 46 38 10 -4 18 3 25 20 5 14 12 26 14 26 7 0 36
-104 36 -128 0 -11 -6 -25 -14 -31 -12 -10 -13 -9 -9 7 5 22 -22 82 -38 82
-19 0 -59 -49 -59 -73 0 -27 48 -77 73 -77 9 0 17 -7 17 -15 0 -20 -9 -19 -47
5 -56 34 -27 -4 59 -76 44 -38 75 -70 68 -72 -13 -5 -49 20 -126 86 -49 41
-52 46 -51 90 1 39 -8 61 -51 132 -66 110 -76 116 -140 85 -28 -13 -53 -29
-57 -35 -12 -20 5 -61 37 -91 18 -16 28 -32 24 -36 -14 -14 -76 64 -76 97 0
43 54 102 86 94 30 -8 30 -1 -2 55 -32 55 -53 81 -68 81 -6 0 -5 -5 2 -12 19
-19 14 -28 -14 -28 -15 0 -74 -7 -133 -15 -151 -22 -174 -26 -168 -31 2 -3 53
2 113 11 60 8 126 17 146 20 20 3 39 1 43 -4 3 -6 -14 -12 -37 -14 -38 -3 -36
-4 14 -5 31 -1 59 -6 62 -10 13 -22 -17 -34 -105 -42 -206 -20 -237 -27 -289
-60 -77 -49 -154 -149 -178 -229 -52 -171 -62 -219 -62 -292 0 -42 -3 -78 -6
-82 -4 -3 -17 1 -30 10 -21 13 -24 23 -24 77 0 135 43 238 170 416 95 133 122
157 200 174 l65 15 -60 -6 c-72 -6 -89 -16 -147 -85 -104 -124 -200 -283 -229
-380 -22 -71 -22 -77 -10 -271 15 -239 10 -267 -18 -102 l-10 60 4 -54 c7 -86
-7 -333 -18 -322 -5 5 -7 56 -5 114 2 58 1 104 -3 101 -3 -2 -8 -65 -11 -139
-3 -75 -10 -141 -15 -146 -11 -11 -8 836 3 886 13 59 54 123 113 176 33 30 81
80 107 113 32 40 63 66 98 82 28 13 45 24 38 24 -31 0 -83 -38 -164 -121 -78
-80 -91 -89 -125 -90 -36 -1 -36 -2 -9 -8 27 -5 28 -7 12 -20 -70 -58 -117
-243 -91 -359 6 -31 -10 -86 -23 -78 -5 3 -12 60 -16 127 -8 141 5 197 54 244
17 16 30 32 30 37 0 4 -21 8 -47 8 l-47 0 31 29 c18 16 54 37 80 46 91 33 128
56 168 105 52 65 91 85 213 110 102 20 179 27 117 9 -23 -6 -19 -7 19 -4 27 3
61 6 75 6 22 1 20 3 -9 9 -30 6 -26 8 30 10 36 2 73 3 83 3 15 -1 17 4 12 21
-43 132 -47 160 -41 313 4 104 11 161 22 185 l15 33 -6 -40 c-33 -228 -30
-331 11 -445 26 -72 72 -155 82 -146 2 3 -9 27 -26 55 -55 88 -76 179 -76 316
1 95 6 133 23 183 26 76 76 159 99 165 9 3 18 5 20 6 2 0 0 -16 -4 -36z m1488
-53 c54 -17 74 -29 121 -79 32 -33 57 -66 57 -74 0 -31 -27 -22 -71 24 -25 27
-49 46 -52 42 -4 -3 -34 7 -68 22 -58 26 -68 27 -168 22 -86 -4 -123 -11 -196
-37 -75 -26 -225 -103 -225 -114 0 -2 42 18 93 43 135 68 224 94 337 98 90 3
99 2 166 -29 105 -49 165 -106 163 -157 0 -26 0 -26 -11 -3 -6 12 -15 22 -20
22 -5 0 -7 4 -3 9 8 14 -43 60 -90 82 -61 28 -215 26 -339 -5 -253 -65 -472
-205 -625 -401 -66 -84 -73 -105 -79 -236 l-5 -115 44 -37 c23 -20 37 -37 31
-37 -7 0 -37 24 -67 53 -55 53 -55 53 -54 113 0 32 8 91 19 129 10 39 14 72 9
73 -17 7 -9 21 52 94 121 145 334 319 474 387 199 98 388 122 520 67 41 -17
113 -77 132 -110 10 -17 12 -18 13 -4 0 9 -24 41 -52 70 -53 53 -103 77 -198
93 -47 8 -51 15 -8 15 20 0 65 -9 100 -20z m-217 -1 c-83 -12 -217 -55 -295
-94 -65 -33 -258 -163 -296 -200 -11 -11 -47 -45 -80 -75 -32 -30 -79 -79
-103 -108 -40 -47 -68 -67 -59 -42 14 41 219 249 308 313 22 15 22 16 3 7 -35
-16 -27 -4 14 25 44 29 69 34 33 5 -38 -30 -14 -24 33 9 131 90 346 168 462
168 31 1 26 -1 -20 -8z m-325 -53 c-8 -8 -51 -33 -95 -56 -83 -44 -136 -80
-170 -116 -68 -72 -235 -225 -235 -215 0 20 221 236 286 279 54 36 211 122
224 122 2 0 -2 -6 -10 -14z m-770 -31 c5 3 22 -1 37 -9 34 -17 81 -66 64 -66
-7 0 9 -28 35 -61 53 -69 73 -117 73 -169 l-1 -35 -11 30 c-38 95 -99 168
-153 181 -40 10 -99 -13 -133 -51 l-31 -36 0 29 c0 34 23 123 45 175 16 38 16
38 41 22 13 -9 29 -13 34 -10z m1940 -50 c0 -7 6 -16 13 -19 10 -5 10 -7 0
-12 -7 -3 -13 -12 -13 -20 0 -8 -4 -14 -10 -14 -5 0 -10 7 -10 15 0 8 -5 15
-11 15 -6 0 -4 7 5 15 8 9 12 23 9 32 -4 11 -3 14 5 9 7 -4 12 -13 12 -21z
m-1625 5 c-3 -5 -16 -10 -28 -9 -21 0 -21 1 -2 9 28 12 37 12 30 0z m-121 -67
c21 -24 35 -43 30 -43 -11 0 -94 82 -94 93 0 13 24 -5 64 -50z m1000 32 c46
-49 86 -195 86 -312 0 -43 -3 -53 -20 -58 -30 -10 -40 2 -40 48 0 52 -21 140
-56 241 -35 101 -21 137 30 81z m86 15 c21 -11 44 -75 61 -170 25 -142 -12
-353 -81 -460 -18 -27 -34 -50 -35 -50 -2 0 9 33 25 73 47 122 59 169 66 262
8 105 -5 179 -47 279 -16 37 -29 70 -29 72 0 7 21 4 40 -6z m-2126 -56 c9 -22
8 -23 -14 -17 -21 5 -25 15 -13 26 11 11 20 8 27 -9z m600 -66 c-4 -40 -9 -67
-12 -60 -5 17 8 145 15 139 2 -3 1 -38 -3 -79z m418 55 c30 -33 52 -72 44 -81
-3 -3 -7 -3 -9 -1 -75 100 -94 145 -35 82z m1238 -38 c0 -2 -7 -1 -17 2 -12 5
-14 3 -8 -7 5 -9 4 -11 -3 -6 -7 4 -12 14 -12 22 0 12 4 12 20 4 11 -6 20 -13
20 -15z m-1997 -11 c-8 -21 -23 -17 -23 6 0 13 5 18 14 14 8 -3 12 -12 9 -20z
m364 -6 c-3 -7 -5 -2 -5 12 0 14 2 19 5 13 2 -7 2 -19 0 -25z m472 -133 c-2
-91 -6 -165 -10 -165 -15 0 -19 80 -9 195 5 66 10 123 10 128 0 4 2 7 6 7 3 0
4 -74 3 -165z m-315 130 c-9 -14 -21 -25 -27 -25 -6 0 0 11 13 25 13 14 25 25
27 25 2 0 -4 -11 -13 -25z m88 -12 c38 -41 56 -83 68 -157 16 -102 -2 -186
-41 -186 -16 0 -18 -2 -7 -14 9 -10 15 -11 20 -2 4 6 8 7 8 2 0 -4 9 2 20 15
10 13 19 19 20 12 0 -6 -12 -21 -27 -32 -25 -20 -26 -23 -14 -62 7 -22 21 -48
32 -57 10 -9 19 -27 19 -40 0 -13 16 -58 35 -100 20 -42 33 -81 31 -88 -3 -7
6 -15 20 -18 28 -7 29 -14 9 -62 -18 -43 -36 -36 -33 14 2 23 -2 37 -12 40 -8
3 -31 21 -52 41 -37 35 -38 37 -26 68 11 29 9 43 -15 116 -15 46 -27 93 -27
105 0 16 -12 27 -52 44 -37 16 -47 24 -34 26 15 3 10 9 -20 26 -52 28 -77 81
-77 158 1 46 -2 58 -12 54 -8 -3 -16 0 -19 7 -8 17 0 -27 18 -102 18 -72 64
-142 113 -172 35 -22 43 -39 18 -39 -8 0 -19 -9 -25 -20 -15 -28 -27 -18 -35
31 -4 26 -21 56 -46 85 -42 49 -72 125 -51 132 8 2 5 12 -8 30 -12 16 -23 52
-27 82 l-6 55 36 -33 c22 -21 37 -30 41 -23 4 6 21 11 38 11 24 0 42 -11 75
-45 42 -44 43 -44 43 -19 0 37 -30 96 -52 102 -18 4 -24 23 -11 35 14 14 40 6
65 -20z m1405 11 c-3 -3 -12 -4 -19 -1 -8 3 -5 6 6 6 11 1 17 -2 13 -5z
m-1306 -41 c15 -40 4 -52 -14 -16 -20 37 -21 43 -7 43 6 0 15 -12 21 -27z
m1327 -29 c8 -29 11 -84 9 -134 -3 -75 -8 -95 -44 -170 -39 -83 -168 -255
-244 -327 -56 -53 -124 -80 -211 -85 -84 -5 -106 6 -34 16 68 11 176 68 250
134 68 60 172 195 162 210 -7 11 23 124 37 141 8 9 12 57 11 137 -1 105 2 124
15 127 29 8 36 1 49 -49z m-1474 15 c36 -28 33 -46 -3 -20 -16 12 -39 25 -52
30 l-24 10 26 0 c15 1 38 -8 53 -20z m645 -18 c19 -12 17 -58 -4 -81 -23 -26
-55 -35 -65 -20 -11 18 -60 -21 -133 -108 -34 -41 -63 -69 -65 -63 -2 7 4 24
14 39 25 39 217 241 229 241 6 1 16 -3 24 -8z m-469 -64 c0 -5 -4 -5 -10 -2
-5 3 -10 14 -10 23 0 15 2 15 10 2 5 -8 10 -19 10 -23z m10 -92 c0 -25 -4 -45
-10 -45 -5 0 -10 20 -10 45 0 25 5 45 10 45 6 0 10 -20 10 -45z m-371 -35 c6
-19 7 -30 2 -25 -5 6 -13 24 -17 40 -9 39 0 30 15 -15z m431 -32 c0 -15 -4
-30 -10 -33 -6 -4 -10 12 -10 42 0 35 3 44 10 33 5 -8 10 -27 10 -42z m1023
-12 c6 -14 -33 -130 -40 -122 -3 2 0 21 6 43 6 21 11 50 11 66 0 28 14 37 23
13z m-1063 -15 c0 -39 -20 -72 -52 -85 -57 -24 -61 -8 -11 50 50 58 63 65 63
35z m49 -28 c-29 -50 -57 -79 -66 -69 -4 4 0 12 10 17 10 6 29 28 42 50 32 50
44 51 14 2z m27 -24 c-9 -27 -14 -36 -15 -22 -1 24 17 78 24 71 3 -2 -1 -24
-9 -49z m-243 -81 c14 -22 -7 -48 -39 -48 -27 0 -29 7 -14 45 11 29 36 31 53
3z m2148 -11 c-13 -13 -31 0 -24 19 4 11 8 12 20 3 9 -8 10 -16 4 -22z m-1931
4 c0 -30 -19 -73 -29 -66 -5 3 -8 18 -6 33 2 15 4 33 4 40 1 20 31 14 31 -7z
m-411 6 c-22 -18 -99 -53 -99 -46 0 10 75 48 94 49 5 0 7 -1 5 -3z m340 -66
c6 -19 9 -36 7 -39 -5 -5 -36 65 -36 81 0 19 17 -6 29 -42z m-1114 30 c-6 -5
-21 -11 -35 -15 -21 -5 -20 -3 5 9 35 17 42 18 30 6z m299 -33 c-124 -131
-143 -174 -151 -343 -5 -137 -9 -157 -24 -135 -10 16 -3 171 12 252 12 68 41
126 90 182 37 42 93 86 109 86 2 0 -14 -19 -36 -42z m86 23 c0 -13 -150 -235
-161 -239 -5 -2 -9 2 -9 10 -1 8 -6 6 -15 -6 -13 -17 -14 -15 -8 20 7 51 23
75 101 157 60 61 92 82 92 58z m415 -33 c8 -49 18 -70 53 -117 19 -25 27 -30
33 -20 6 10 9 10 9 2 0 -26 -19 -21 -60 17 -26 24 -39 43 -34 51 4 7 3 10 -3
6 -6 -4 -17 1 -24 11 -13 16 -13 16 5 2 18 -14 19 -13 12 10 -16 58 -18 80 -8
80 6 0 13 -19 17 -42z m-215 9 c10 -4 8 -6 -7 -6 -41 -2 -19 -30 27 -36 8 -1
42 -27 75 -59 33 -32 51 -54 40 -49 -65 31 -80 41 -77 52 1 7 -2 10 -7 7 -5
-4 -12 -2 -16 4 -3 5 -1 10 4 10 6 0 11 5 11 10 0 6 -11 10 -24 10 -14 0 -27
4 -30 9 -3 4 -17 6 -31 3 -24 -4 -25 -3 -15 23 16 41 22 49 29 38 3 -6 13 -13
21 -16z m-665 1 c-45 -25 -136 -101 -146 -121 -10 -19 -8 -18 18 6 22 20 39
27 71 27 47 0 50 -4 23 -28 -42 -38 -53 -96 -46 -244 l8 -138 -24 0 c-12 0
-42 9 -66 21 -39 19 -43 24 -43 57 0 33 8 94 25 192 l5 35 -15 -40 c-9 -22
-20 -80 -24 -130 -8 -88 -8 -90 16 -111 14 -12 43 -27 66 -34 22 -6 51 -18 63
-26 18 -12 23 -12 27 -2 3 7 5 -128 5 -300 0 -172 -5 -315 -9 -318 -5 -3 -10
7 -10 23 -1 21 -3 23 -6 8 -8 -35 -19 -37 -67 -15 -54 26 -55 27 -71 94 l-13
51 -1 -60 c-1 -79 21 -117 83 -140 25 -10 46 -18 46 -19 0 0 -7 -23 -15 -50
-8 -27 -15 -71 -15 -97 0 -44 -19 -83 -21 -42 0 12 -2 13 -6 5 -3 -8 2 -33 11
-56 13 -34 14 -52 6 -95 -14 -76 -12 -172 5 -220 17 -51 8 -53 -23 -5 -19 30
-24 52 -26 119 -2 45 -5 86 -9 92 -3 5 -8 52 -11 104 -3 52 -12 112 -19 134
-11 29 -12 56 -6 100 5 37 4 62 -2 66 -6 3 -9 135 -7 350 1 189 1 376 1 414
-2 83 18 188 45 241 32 61 150 165 187 164 6 0 1 -6 -10 -12z m840 -36 c-5
-26 4 -39 83 -123 114 -120 222 -282 272 -407 15 -38 5 -52 -37 -52 -16 0 -23
8 -28 33 -10 45 -77 186 -116 244 -18 26 -64 81 -102 121 -75 80 -101 128 -91
170 12 49 30 62 19 14z m88 -35 c-7 -11 -23 12 -23 33 1 12 4 11 15 -4 8 -10
12 -23 8 -29z m287 -17 c17 -27 49 -67 71 -90 l39 -40 -11 -50 c-14 -67 -35
-62 -31 7 3 41 0 53 -16 65 -18 12 -92 135 -92 151 0 15 9 5 40 -43z m74 19
c20 -33 142 -135 209 -173 23 -13 80 -37 127 -52 73 -25 100 -29 190 -28 72 0
94 -2 70 -7 -21 -5 1 -6 57 -4 98 5 196 31 244 66 31 22 39 23 39 9 0 -21 -95
-70 -167 -86 -95 -21 -336 -15 -428 11 -81 22 -172 68 -226 113 -63 52 -135
133 -143 160 -10 32 7 27 28 -9z m-248 4 c-8 -24 8 -48 25 -38 9 5 8 2 -2 -9
-23 -25 -50 -11 -43 23 8 30 13 41 20 41 3 0 3 -8 0 -17z m1314 -26 c0 -33 -4
-44 -15 -44 -11 0 -12 4 -5 11 15 15 13 59 -2 50 -9 -5 -9 -2 1 9 19 24 21 22
21 -26z m-1283 11 c-3 -8 -6 -5 -6 6 -1 11 2 17 5 13 3 -3 4 -12 1 -19z m-379
-23 l37 -34 -35 11 c-19 6 -54 12 -78 12 -36 1 -40 3 -25 14 16 11 16 12 0 12
-19 0 -57 -34 -57 -52 0 -6 -3 -8 -6 -5 -10 10 25 57 49 67 44 18 76 11 115
-25z m2286 -13 c2 -4 1 -14 -4 -22 -7 -11 -11 -11 -24 2 -8 9 -12 18 -9 22 9
9 31 7 37 -2z m-2258 -37 c47 -21 104 -78 90 -92 -3 -3 -18 2 -33 12 -15 10 4
-12 43 -48 123 -115 175 -219 194 -388 10 -87 9 -123 -4 -218 -9 -62 -23 -127
-31 -144 -14 -27 -14 -32 1 -49 11 -11 13 -18 5 -18 -6 0 -14 7 -17 15 -4 8
-10 12 -15 9 -12 -7 -11 8 0 39 17 43 41 205 41 270 -1 164 -91 350 -240 490
-97 92 -191 115 -263 64 -16 -10 -26 -21 -23 -24 2 -3 18 5 35 18 59 44 167 4
271 -101 79 -79 132 -168 166 -275 41 -129 45 -280 5 -167 -55 151 -155 305
-247 378 -43 34 -134 89 -134 81 0 -3 21 -19 48 -35 120 -75 191 -154 249
-282 19 -41 40 -85 45 -97 6 -11 7 -26 4 -32 -4 -5 1 -53 10 -105 9 -53 14
-101 12 -108 -9 -25 -27 28 -43 123 -9 52 -29 121 -44 154 -52 110 -192 279
-262 315 -29 15 -19 5 40 -40 52 -40 174 -201 213 -280 38 -78 75 -350 48
-350 -13 0 -18 24 -34 166 -15 130 -39 196 -97 264 -24 29 -22 23 12 -34 22
-38 47 -87 55 -109 16 -46 19 -161 4 -152 -5 3 -28 37 -50 75 -23 39 -43 70
-45 70 -2 0 14 -39 36 -87 23 -49 47 -106 55 -128 13 -37 13 -39 -2 -20 -16
19 -16 19 -10 -7 9 -39 2 -35 -29 18 -36 61 -41 52 -8 -15 17 -33 27 -70 27
-101 1 -27 7 -55 14 -62 6 -6 12 -21 11 -33 0 -20 0 -20 -9 0 -7 14 -8 10 -4
-16 6 -38 -9 -62 -20 -31 -3 9 -24 44 -46 77 -22 33 -45 71 -52 85 -11 24 -12
25 -15 3 -2 -12 3 -37 12 -55 l16 -33 -25 30 c-31 36 -32 48 -5 136 21 69 34
84 46 53 5 -15 7 -15 15 0 14 25 -2 45 -130 162 l-118 109 -101 28 c-125 34
-183 35 -209 5 l-19 -22 24 16 c16 12 38 15 73 12 53 -5 190 -40 222 -56 44
-23 230 -204 222 -216 -3 -5 -15 -8 -28 -6 -13 1 -26 3 -30 3 -5 1 -8 5 -8 11
0 5 8 7 18 4 9 -4 -13 24 -50 61 -38 37 -72 64 -78 60 -6 -4 -37 4 -68 18 -31
14 -68 28 -82 32 -21 7 -23 6 -13 -7 7 -8 10 -18 6 -22 -4 -4 -1 -4 8 -1 19 7
83 -19 127 -53 27 -21 32 -30 27 -51 -6 -24 -5 -25 8 -7 14 19 16 17 66 -29
28 -26 54 -58 57 -71 3 -13 -4 -46 -19 -81 -14 -32 -31 -83 -37 -113 -7 -30
-16 -63 -21 -72 -11 -22 22 -34 50 -19 29 16 38 13 15 -4 -10 -8 -32 -15 -48
-15 -36 0 -212 80 -286 130 -76 51 -108 66 -158 75 -31 5 -41 10 -33 18 19 19
137 -21 193 -65 48 -39 166 -98 219 -111 25 -6 27 -3 44 48 18 60 15 96 -14
134 l-19 24 -7 -31 c-8 -37 -5 -36 -50 -18 -28 12 -35 12 -35 2 0 -14 93 -32
110 -21 6 3 10 3 11 -2 0 -4 2 -17 4 -27 2 -11 -8 -31 -24 -47 -24 -24 -26
-29 -12 -35 11 -4 12 -8 4 -11 -18 -6 -198 74 -220 99 -24 26 -79 54 -137 69
-48 12 -71 29 -39 29 43 0 147 -41 186 -73 39 -32 157 -97 174 -97 4 0 -21 17
-57 37 -36 20 -80 49 -98 64 -18 16 -46 36 -62 44 -17 9 -28 21 -24 26 4 7 -1
7 -15 0 -32 -18 -100 5 -107 36 -8 30 5 44 19 21 9 -14 13 -11 29 24 20 44 23
78 8 78 -5 0 -10 -9 -10 -19 0 -11 -6 -22 -12 -25 -10 -5 -10 -7 0 -12 19 -9
4 -23 -19 -17 -19 5 -21 11 -15 52 3 25 21 75 39 111 31 63 33 65 67 62 19 -1
39 -7 44 -12 5 -5 -1 -35 -13 -71 -29 -88 -19 -85 12 3 24 67 25 74 10 86 -9
6 -23 12 -31 12 -8 0 -12 6 -8 15 4 12 -2 11 -33 -4 -29 -15 -43 -32 -64 -78
-14 -32 -28 -80 -32 -108 -13 -104 -15 -114 -29 -109 -8 3 -17 1 -21 -5 -15
-25 -22 -8 -12 32 10 39 11 40 18 17 5 -19 7 -12 8 25 1 28 8 82 17 120 9 39
17 84 18 100 4 48 9 55 152 222 47 55 88 69 157 52 75 -18 134 -46 178 -86 21
-19 39 -31 39 -27 -1 34 -206 144 -268 144 -30 0 -74 -26 -97 -56 -22 -29 -19
4 3 41 36 59 209 210 275 241 55 25 61 25 143 -11z m425 -37 c31 -25 39 -38
39 -65 0 -18 -4 -33 -8 -33 -20 0 -82 91 -82 120 0 16 8 12 51 -22z m230 -24
c27 -33 121 -86 205 -115 113 -39 216 -53 339 -44 133 9 208 29 278 75 31 21
57 35 57 31 0 -14 -46 -59 -77 -74 -86 -45 -389 -85 -441 -58 -9 5 -61 19
-115 31 -124 28 -205 68 -257 127 -22 25 -40 50 -40 55 0 12 33 -6 51 -28z
m943 0 c7 -18 -46 -152 -76 -189 -51 -65 -168 -103 -333 -110 -126 -5 -121 -2
20 15 125 15 198 34 252 68 50 32 76 74 98 165 17 67 28 81 39 51z m51 6 c-3
-5 -12 -10 -18 -10 -7 0 -6 4 3 10 19 12 23 12 15 0z m-166 -26 c-31 -37 -161
-85 -229 -83 -25 1 -16 5 35 15 39 7 99 29 135 47 36 19 67 35 69 35 2 1 -2
-5 -10 -14z m-1912 -16 c-3 -8 -6 -5 -6 6 -1 11 2 17 5 13 3 -3 4 -12 1 -19z
m649 -71 c27 -29 61 -76 76 -103 30 -55 82 -226 75 -246 -2 -7 -9 11 -16 40
-15 72 -70 189 -109 234 -18 19 -32 42 -32 51 0 20 -30 45 -30 26 0 -8 -14 1
-31 19 -31 35 -31 59 0 42 10 -5 40 -33 67 -63z m434 43 c8 -5 11 -12 7 -16
-4 -4 -15 0 -24 9 -18 18 -8 23 17 7z m1042 -64 c17 -32 22 -63 25 -136 l3
-95 -29 95 c-15 52 -36 113 -45 135 -10 22 -19 48 -21 57 -7 32 44 -10 67 -56z
m-737 54 c13 -5 14 -9 5 -9 -8 0 -24 4 -35 9 -13 5 -14 9 -5 9 8 0 24 -4 35
-9z m-306 -32 c49 -31 163 -76 236 -94 84 -21 313 -29 403 -15 71 11 145 41
207 85 l30 21 -16 -25 c-23 -36 -107 -79 -191 -97 -98 -21 -308 -20 -413 1
-78 16 -272 103 -297 133 -16 20 0 16 41 -9z m368 16 c-3 -3 -12 -4 -19 -1 -8
3 -5 6 6 6 11 1 17 -2 13 -5z m636 -107 c14 -45 28 -93 32 -107 6 -23 5 -24
-6 -5 -19 30 -80 233 -65 212 8 -10 25 -55 39 -100z m-1093 74 c0 -4 -9 -7
-20 -8 -19 -2 -27 16 -13 30 6 7 33 -11 33 -22z m518 22 c-10 -2 -26 -2 -35 0
-10 3 -2 5 17 5 19 0 27 -2 18 -5z m-447 -100 c129 -65 281 -120 377 -139 144
-28 338 -11 433 37 33 17 90 72 116 115 10 16 12 17 12 2 1 -9 -14 -36 -31
-60 -75 -99 -245 -144 -466 -121 -59 6 -134 20 -167 31 -103 33 -112 34 -118
13 -3 -14 -11 -17 -31 -14 -14 3 -26 10 -26 15 0 5 5 6 10 3 6 -3 10 -1 10 4
0 6 8 11 18 11 9 1 -8 11 -39 24 -106 44 -259 140 -259 163 0 11 7 9 28 -9 15
-13 75 -47 133 -75z m-1 54 c50 -34 201 -101 300 -133 78 -26 98 -28 235 -29
132 0 159 3 225 24 41 13 84 31 95 40 16 13 16 11 -3 -10 -12 -14 -52 -36 -90
-50 -61 -22 -82 -24 -227 -24 -148 1 -166 3 -244 29 -160 53 -341 142 -341
166 0 15 12 12 50 -13z m975 13 c3 -5 1 -10 -4 -10 -6 0 -11 5 -11 10 0 6 2
10 4 10 3 0 8 -4 11 -10z m-1003 -149 c199 -94 332 -126 530 -126 93 0 131 -3
120 -10 -27 -15 -248 -10 -352 9 -117 21 -170 37 -285 88 -123 54 -175 89
-213 143 l-32 45 65 -50 c35 -28 110 -73 167 -99z m-89 105 c31 -21 55 -41 53
-44 -8 -7 -88 43 -111 68 -26 29 -14 24 58 -24z m1262 -19 c13 -29 28 -67 31
-85 4 -18 10 -34 14 -37 9 -6 -3 60 -19 98 -17 44 -12 46 10 5 10 -21 32 -44
48 -52 46 -24 79 -71 92 -133 7 -32 28 -82 46 -110 19 -29 31 -53 29 -53 -3 0
-21 25 -41 55 -36 57 -49 66 -59 39 -3 -8 -2 -12 4 -9 6 3 10 -4 10 -17 0 -13
7 -62 16 -109 l17 -87 -38 -67 c-21 -37 -32 -65 -26 -61 6 4 21 26 33 49 28
56 35 31 8 -28 -23 -51 -98 -128 -117 -121 -6 3 -17 -3 -25 -12 -12 -16 -11
-16 7 -2 18 14 19 14 7 -2 -8 -9 -20 -14 -28 -11 -8 3 -14 -1 -14 -10 0 -16
-27 -43 -36 -35 -9 10 33 106 76 174 40 63 84 154 75 154 -3 0 -14 -18 -25
-41 -35 -67 -114 -164 -118 -144 -5 24 13 58 74 137 48 62 71 113 89 193 6 28
5 29 -8 10 -14 -18 -15 -15 -18 38 -4 61 2 67 39 41 22 -15 22 -15 11 13 -7
15 -12 39 -13 53 -1 17 -8 26 -21 28 -19 3 -19 2 -1 -9 14 -9 16 -13 5 -20
-11 -6 -9 -12 6 -31 19 -23 19 -23 -7 1 -15 13 -25 28 -21 34 3 6 1 7 -5 3 -6
-3 -14 -1 -18 5 -3 6 -1 15 5 19 9 5 7 11 -5 21 -19 15 -19 11 6 -121 20 -109
-1 -204 -60 -278 -40 -50 -49 -48 -22 5 11 21 24 73 31 116 13 91 14 203 1
172 -8 -21 -14 -14 -23 30 -2 11 -4 -19 -5 -67 -2 -103 -17 -214 -34 -254
l-12 -29 -4 30 c-2 16 -2 69 0 117 1 47 0 84 -5 81 -16 -10 -20 34 -8 106 20
129 22 135 33 120 7 -10 8 -9 3 6 -4 11 -16 44 -26 74 -23 65 -23 72 -4 65 8
-3 26 -29 40 -57z m-955 43 c0 -5 -2 -10 -4 -10 -3 0 -8 5 -11 10 -3 6 -1 10
4 10 6 0 11 -4 11 -10z m795 -20 c-3 -5 -10 -10 -16 -10 -5 0 -9 5 -9 10 0 6
7 10 16 10 8 0 12 -4 9 -10z m10 -30 c3 -5 -3 -10 -15 -10 -12 0 -18 5 -15 10
3 6 10 10 15 10 5 0 12 -4 15 -10z m-1041 -44 c22 -9 37 -19 34 -22 -6 -6
-128 53 -128 61 0 3 12 -1 28 -9 15 -7 45 -21 66 -30z m1051 -6 c3 -6 -4 -10
-17 -10 -18 0 -20 2 -8 10 19 12 18 12 25 0z m-1246 -121 c19 -70 19 -89 2
-89 -6 0 -26 79 -47 190 l-5 25 15 -26 c8 -14 24 -59 35 -100z m1251 91 c0 -5
-7 -10 -15 -10 -8 0 -15 5 -15 10 0 6 7 10 15 10 8 0 15 -4 15 -10z m-1025
-71 c9 -14 -2 -11 -43 11 -41 22 -72 44 -72 53 0 7 108 -52 115 -64z m75 56
c14 -8 21 -14 15 -14 -5 0 -21 6 -35 14 -14 8 -20 14 -15 14 6 0 21 -6 35 -14z
m950 -15 c-20 -13 -33 -13 -25 0 3 6 14 10 23 10 15 0 15 -2 2 -10z m20 -19
c0 -5 -9 -11 -20 -14 -22 -6 -28 8 -7 16 19 8 27 8 27 -2z m-85 -61 c-4 -11
-11 -20 -17 -20 -5 0 -7 7 -4 16 3 9 6 25 6 37 1 20 2 20 11 4 6 -9 7 -26 4
-37z m-962 1 c116 -57 190 -71 382 -71 166 0 232 9 330 46 18 7 19 6 6 -10
-24 -29 -52 -39 -161 -58 -125 -21 -164 -23 -154 -7 5 9 -9 10 -52 5 -32 -4
-86 -10 -119 -14 -92 -11 -216 5 -237 29 -10 12 -22 18 -28 14 -5 -3 -10 3
-10 14 0 33 -1 35 -14 51 -19 23 -30 43 -20 38 5 -2 39 -19 77 -37z m1047 29
c0 -5 -10 -10 -22 -9 -22 0 -22 1 -3 9 11 5 21 9 23 9 1 1 2 -3 2 -9z m-600
-22 c10 -6 -6 -7 -45 -3 -33 3 -64 10 -69 15 -12 12 93 1 114 -12z m-306 -4
c20 -3 36 -10 36 -15 0 -11 -2 -11 -56 2 -24 6 -44 16 -44 21 0 6 6 8 14 5 8
-3 31 -9 50 -13z m911 -4 c3 -5 -3 -10 -15 -10 -12 0 -18 5 -15 10 3 6 10 10
15 10 5 0 12 -4 15 -10z m597 -8 c16 -16 -7 -41 -31 -35 -25 6 -24 53 2 49 9
-1 22 -7 29 -14z m-1768 -28 c14 -36 6 -62 -21 -68 -31 -8 -43 5 -43 52 0 29
3 32 29 32 17 0 31 -6 35 -16z m1174 4 c19 -19 14 -29 -8 -16 -20 13 -27 28
-12 28 4 0 13 -5 20 -12z m-74 -19 c-14 -6 -8 -8 21 -9 32 -1 36 -3 20 -10
-11 -5 -38 -9 -60 -10 -22 -1 -51 -5 -65 -10 -14 -4 21 -5 78 -2 138 7 133
-11 -10 -32 -482 -72 -660 -103 -669 -118 -5 -7 -9 -136 -9 -285 l0 -273 33 1
c30 2 30 2 5 6 l-28 4 2 112 2 112 3 -109 c4 -106 4 -108 26 -102 12 3 46 11
75 17 48 11 52 14 52 41 0 27 -1 28 -40 22 -37 -6 -39 -5 -45 22 -4 16 -8 34
-10 41 -5 14 0 18 36 27 24 5 27 3 33 -29 9 -48 26 -44 26 5 0 38 2 40 30 40
28 0 30 -3 30 -35 0 -37 14 -43 55 -24 15 7 12 8 -12 3 -32 -5 -33 -5 -33 29
0 32 3 35 35 39 35 4 35 4 35 -34 0 -36 2 -38 30 -38 26 0 30 -4 30 -26 0 -22
3 -25 23 -20 12 3 30 6 40 6 11 0 15 4 11 12 -4 7 -3 8 4 4 14 -8 92 14 92 26
0 5 5 6 11 3 5 -4 22 -4 37 0 20 5 23 8 11 16 -11 7 -10 9 6 9 12 0 27 -6 34
-12 11 -11 13 -10 8 3 -4 13 3 18 33 23 21 3 45 9 54 12 11 4 16 0 16 -12 0
-14 4 -11 15 10 8 16 16 60 17 100 2 67 2 66 8 -29 5 -74 7 -40 8 132 1 170
-2 234 -11 241 -12 10 -174 -12 -187 -25 -3 -3 11 -3 30 0 19 4 63 9 98 13
l62 7 0 -41 c0 -47 4 -46 -130 -66 -52 -8 -158 -26 -235 -41 -159 -30 -378
-63 -384 -59 -2 2 0 24 3 49 8 51 17 57 96 69 l45 7 -3 -46 c-3 -28 0 -45 7
-45 6 0 11 18 11 40 0 32 4 40 19 40 15 0 18 -6 14 -35 l-4 -35 43 5 c79 11
85 14 90 40 6 28 1 30 -36 15 -19 -7 -26 -6 -27 3 0 6 -4 3 -9 -8 -5 -11 -9
-14 -9 -7 -1 6 -8 12 -16 12 -8 0 -15 4 -15 9 0 5 32 12 70 16 46 5 70 11 67
19 -2 6 -17 12 -33 13 -28 2 -28 2 -4 -7 17 -6 9 -7 -27 -3 -38 4 -53 2 -53
-6 0 -8 -8 -10 -19 -6 -28 9 -193 -24 -213 -42 -16 -15 -18 -15 -18 0 0 9 4
19 10 22 23 14 757 128 777 121 27 -11 12 -611 -16 -664 -7 -13 -54 -26 -183
-51 -95 -18 -198 -40 -228 -48 -30 -8 -64 -15 -75 -17 -11 -2 -13 -1 -4 1 10
2 19 14 22 26 6 20 5 20 -7 5 -14 -19 -42 -26 -31 -8 3 6 1 10 -4 10 -10 0
-15 -21 -8 -37 3 -10 -290 -70 -299 -61 -12 13 -26 319 -22 526 4 277 -2 265
125 276 43 4 139 20 213 36 74 16 178 35 230 43 55 9 80 16 60 17 -29 1 -31 3
-15 10 30 12 118 26 134 21 11 -3 10 -6 -5 -12z m-1170 -45 c8 -22 9 -21 -16
-27 -20 -6 -37 6 -38 25 0 6 16 12 41 17 4 0 10 -6 13 -15z m-76 -172 c-3 -48
-9 -68 -26 -84 l-22 -22 0 24 c0 14 5 74 12 134 l12 109 14 -49 c8 -29 12 -75
10 -112z m649 152 c-3 -3 -12 -4 -19 -1 -8 3 -5 6 6 6 11 1 17 -2 13 -5z
m-497 -14 c0 -5 -11 -10 -25 -10 -14 0 -25 5 -25 10 0 6 11 10 25 10 14 0 25
-4 25 -10z m-80 -20 c-19 -12 -40 -13 -40 -1 0 9 40 20 50 13 2 -2 -2 -7 -10
-12z m480 10 c-8 -5 -29 -10 -47 -10 -43 0 -73 -13 -104 -44 -32 -31 -42 -71
-23 -87 11 -9 14 -62 14 -254 0 -229 1 -247 24 -321 49 -157 47 -154 86 -154
60 0 140 12 135 21 -3 4 21 10 52 13 32 4 90 13 128 21 128 26 140 27 130 18
-20 -19 -464 -109 -489 -100 -10 4 -16 19 -16 41 0 38 -12 69 -55 141 l-30 50
-2 293 -3 294 29 29 c16 16 24 29 17 29 -6 0 -16 -4 -21 -9 -6 -5 -43 -14 -84
-20 -69 -11 -76 -10 -94 8 -20 20 -20 20 6 26 14 4 86 10 159 14 204 12 205
12 188 1z m1129 -45 c5 2 17 -5 27 -18 l19 -22 -22 19 c-13 11 -23 14 -23 8 0
-6 5 -14 10 -17 18 -11 70 -109 70 -131 0 -14 -13 -27 -45 -43 -48 -24 -86
-25 -93 -2 -3 9 2 11 17 6 26 -8 87 11 94 29 3 8 -10 39 -30 70 -27 44 -40 56
-57 54 -19 -3 -21 2 -24 52 l-3 55 27 -33 c14 -18 29 -30 33 -27z m-1479 -54
c10 -39 5 -75 -10 -66 -13 8 -23 -119 -17 -197 5 -59 4 -69 -9 -64 -11 4 -13
0 -8 -19 7 -27 -4 -33 -24 -13 -13 13 -18 391 -6 422 10 27 61 -18 74 -63z
m-115 60 c-15 -14 -55 -23 -55 -13 0 15 12 22 39 22 15 0 21 -4 16 -9z m-565
-46 c24 -24 41 -47 37 -51 -6 -7 -107 76 -107 89 0 19 30 3 70 -38z m780 4
c13 -23 14 -22 -18 -39 -38 -19 -60 -84 -68 -198 -4 -56 -11 -102 -15 -102
-15 0 -10 174 6 220 8 23 15 62 15 86 0 36 3 43 23 47 42 8 46 7 57 -14z
m-210 1 c0 -5 -15 -10 -32 -10 -25 0 -29 3 -18 10 20 13 50 13 50 0z m398
-162 l-3 -173 -37 -6 -38 -6 -1 116 c-3 233 -1 241 54 241 l27 0 -2 -172z
m1202 100 c16 -22 30 -49 30 -58 0 -27 -71 -53 -85 -31 -8 14 16 61 32 61 7 0
13 5 13 10 0 6 -4 10 -9 10 -6 0 -13 -4 -16 -10 -18 -29 -33 6 -19 44 10 25
22 19 54 -26z m-1605 22 c-3 -5 -17 -10 -31 -10 -13 0 -24 5 -24 10 0 6 14 10
31 10 17 0 28 -4 24 -10z m220 -25 c-31 -26 -29 -34 5 -13 28 18 33 6 21 -58
-6 -32 -11 -122 -11 -201 0 -120 -2 -143 -15 -143 -8 0 -15 -9 -15 -21 0 -11
4 -17 10 -14 6 3 7 -1 4 -9 -3 -9 -10 -16 -14 -16 -13 0 -19 30 -19 89 1 42
-3 58 -17 68 -22 16 -22 86 0 190 10 50 10 60 -1 56 -18 -7 -16 1 7 46 19 39
32 49 60 50 9 0 3 -10 -15 -24z m-225 -5 c0 -5 -12 -10 -27 -10 -22 0 -25 2
-13 10 20 13 40 13 40 0z m780 0 c0 -5 -5 -10 -11 -10 -5 0 -7 5 -4 10 3 6 8
10 11 10 2 0 4 -4 4 -10z m405 -31 c10 -15 4 -18 -45 -21 -25 -2 -47 -6 -50
-10 -3 -4 -46 -10 -94 -13 -48 -3 -93 -7 -98 -8 -6 -1 -12 3 -15 9 -5 15 35
26 43 12 4 -6 9 -7 13 0 3 5 49 16 101 24 121 20 137 20 145 7z m525 -28 c0
-21 -13 -4 -17 22 -2 17 -1 19 7 7 5 -8 10 -21 10 -29z m-1720 19 c-20 -13
-40 -13 -40 0 0 6 12 10 28 10 21 0 24 -2 12 -10z m10 -30 c0 -5 -11 -10 -24
-10 -14 0 -28 5 -31 10 -4 6 7 10 24 10 17 0 31 -4 31 -10z m1260 -22 c0 -15
-3 -28 -7 -29 -28 -1 -108 -11 -163 -20 -64 -10 -92 -13 -179 -25 -25 -3 -48
-7 -53 -10 -4 -3 -8 6 -8 20 0 14 3 25 8 25 4 -1 9 0 12 1 3 1 21 3 40 5 32 4
70 9 142 19 14 2 35 7 47 11 14 4 21 2 21 -7 0 -7 6 -4 12 7 12 19 12 19 19
-5 7 -24 7 -24 8 -3 1 16 9 24 29 29 15 3 32 7 37 8 27 7 35 1 35 -26z m-436
-10 c10 -39 7 -146 -5 -154 -10 -6 -238 -44 -266 -44 -10 0 -13 25 -13 90 l0
89 33 6 c216 40 243 41 251 13z m956 -102 c0 -6 -13 10 -28 35 -42 66 -50 70
-97 47 -36 -18 -28 -18 24 -2 15 4 27 -4 50 -37 28 -39 31 -49 31 -122 l0 -80
-54 7 c-50 6 -59 3 -161 -50 -104 -53 -165 -70 -93 -26 20 12 42 30 49 39 8 9
-7 3 -33 -15 -26 -18 -50 -32 -53 -32 -4 0 -23 -13 -42 -30 -39 -35 -59 -40
-43 -11 14 27 114 103 177 135 29 14 78 33 109 41 32 8 60 18 63 21 15 17
-102 -8 -168 -35 -85 -36 -88 -36 -71 -16 7 8 17 12 24 8 6 -3 8 -3 4 2 -4 4
-3 14 3 22 23 27 -10 12 -70 -32 -37 -27 -61 -40 -61 -31 0 7 10 21 23 30 12
8 45 36 72 62 l50 46 -50 -36 c-27 -20 -62 -46 -77 -57 -16 -11 -28 -16 -28
-10 0 5 14 20 31 32 17 12 56 43 86 70 33 29 77 56 111 68 32 11 48 20 37 20
-11 1 8 14 44 30 l64 29 39 -57 c21 -31 38 -60 38 -65z m-2820 74 c0 -4 -16
-20 -36 -35 l-37 -28 7 26 c3 14 11 38 16 53 10 26 11 26 30 9 11 -10 20 -21
20 -25z m1019 31 c21 -13 -5 -24 -29 -11 -11 6 -20 13 -20 15 0 8 34 5 49 -4z
m-25 -27 c15 -6 23 -34 10 -34 -15 0 -44 22 -39 31 7 11 9 11 29 3z m2133 -50
c-9 -9 -28 6 -21 18 4 6 10 6 17 -1 6 -6 8 -13 4 -17z m-2103 -18 c-3 -14 -10
-26 -15 -26 -11 0 -11 3 1 36 13 33 23 26 14 -10z m1226 10 c0 -20 -5 -25 -27
-25 -16 0 -41 -2 -58 -5 -16 -3 -61 -10 -100 -16 -82 -13 -110 -18 -110 -21 0
-1 -10 -3 -22 -4 -18 -2 -23 3 -23 23 0 21 4 24 30 20 17 -3 30 -1 30 3 0 7
39 14 136 24 42 5 132 20 142 24 1 1 2 -10 2 -23z m-2077 -54 c46 -29 119 -68
161 -87 70 -32 94 -48 64 -44 -7 1 -22 0 -33 -1 -15 -1 -11 -5 15 -17 19 -8
57 -28 83 -45 54 -35 69 -30 45 13 -9 16 -13 29 -9 29 5 0 14 -14 21 -31 12
-27 11 -33 -8 -51 l-20 -21 -64 32 c-34 17 -53 29 -40 27 12 -2 22 -1 22 4 0
13 -108 42 -132 35 -15 -4 -18 -3 -10 3 9 6 -5 13 -43 21 -65 15 -223 7 -295
-15 -39 -12 -90 -10 -90 3 0 3 16 33 35 67 19 35 35 70 35 80 0 9 15 25 33 37
25 16 45 19 89 16 47 -3 70 -12 141 -55z m-403 -21 c24 -11 48 -17 52 -15 4 3
8 1 8 -5 0 -18 -16 -20 -54 -9 -40 13 -86 49 -86 69 0 8 6 7 18 -4 9 -9 37
-25 62 -36z m1100 31 l22 -18 -34 -57 c-20 -34 -40 -57 -50 -57 -10 0 -18 5
-18 10 0 6 7 10 16 8 10 -2 19 4 21 12 4 12 3 12 -5 1 -22 -31 -19 9 4 48 13
24 24 45 24 48 0 9 -44 -41 -69 -78 -26 -39 -25 -35 11 44 29 61 43 68 78 39z
m-360 -29 c-11 -17 -11 -17 -6 0 3 10 6 24 7 30 0 9 2 9 5 0 3 -7 0 -20 -6
-30z m2317 -40 c-2 -16 -4 -5 -4 22 0 28 2 40 4 28 2 -13 2 -35 0 -50z m-2257
-7 c-8 -7 -29 -18 -47 -24 -31 -10 -32 -10 -22 14 5 13 14 36 19 51 l11 27 27
-27 c23 -23 25 -29 12 -41z m987 32 c-3 -8 -6 -5 -6 6 -1 11 2 17 5 13 3 -3 4
-12 1 -19z m671 -4 c2 -17 -5 -22 -50 -32 -99 -21 -189 -34 -195 -28 -4 3 4 6
17 6 13 0 21 3 17 6 -9 9 -59 -5 -53 -15 3 -4 -6 -7 -21 -5 -42 4 -59 47 -22
57 14 4 23 -1 29 -16 l9 -22 0 21 c1 18 9 22 49 27 26 3 48 1 50 -4 2 -5 10
-2 19 6 22 23 63 19 63 -5 0 -11 5 -20 10 -20 6 0 10 9 10 19 0 35 63 39 68 5z
m-2571 -56 c-2 -13 -4 -3 -4 22 0 25 2 35 4 23 2 -13 2 -33 0 -45z m983 -4
c35 -62 35 -100 0 -69 -21 19 -28 7 -8 -13 6 -6 8 -15 5 -19 -7 -7 -25 14 -58
67 -14 23 -14 29 -3 45 8 10 14 27 14 38 0 27 15 13 50 -49z m803 -54 c8 -119
5 -313 -5 -290 -3 8 -10 33 -14 55 -7 38 -7 38 -15 15 -7 -21 -8 -19 -4 9 3
21 -2 50 -15 78 -28 63 -29 229 -2 236 43 12 47 6 55 -103z m-353 30 c0 -23
-24 -42 -44 -34 -20 8 -20 24 1 68 l16 35 14 -26 c7 -14 13 -33 13 -43z m100
45 l30 -16 0 -139 0 -140 -24 0 c-14 0 -28 6 -33 13 -7 11 -12 297 -5 297 2 0
16 -7 32 -15z m-172 -29 c3 -13 -1 -17 -14 -14 -11 2 -20 11 -22 22 -3 13 1
17 14 14 11 -2 20 -11 22 -22z m-83 4 c4 -6 3 -10 -2 -9 -20 4 -24 -2 -12 -18
13 -15 12 -15 -9 -4 -19 10 -21 15 -11 27 14 17 25 18 34 4z m205 -124 c0 -74
-3 -137 -8 -139 -4 -3 -21 6 -37 19 -17 13 -25 24 -18 24 6 0 15 -4 18 -10 3
-5 11 -10 17 -10 10 0 8 65 -5 210 -2 23 8 39 26 40 4 0 7 -60 7 -134z m1721
97 l34 -36 -37 28 c-21 15 -38 31 -38 36 0 14 4 11 41 -28z m345 -1 c-10 -10
-29 15 -21 28 6 9 10 8 17 -4 6 -10 7 -20 4 -24z m-3397 -53 c-6 -24 -13 -66
-16 -94 l-4 -50 26 60 c14 33 25 61 25 62 0 13 111 22 271 22 l195 1 69 -43
c43 -26 84 -61 107 -92 47 -61 49 -79 6 -39 -83 77 -195 150 -172 113 4 -7 0
-9 -12 -6 -38 12 -79 20 -74 15 3 -3 48 -24 101 -47 109 -48 153 -87 192 -171
31 -67 60 -150 54 -156 -7 -7 -41 49 -42 68 -2 22 7 15 -104 88 -105 70 -190
112 -204 103 -5 -3 35 -27 89 -53 54 -27 119 -66 144 -89 l45 -41 -87 41
c-117 54 -155 57 -311 25 -147 -30 -204 -56 -267 -120 -24 -25 -48 -46 -52
-46 -14 0 -9 79 7 117 9 21 23 46 33 56 22 24 121 75 170 86 31 7 32 9 10 10
-39 1 -190 -66 -216 -97 l-24 -27 7 65 c3 36 5 102 5 148 -1 58 4 96 17 130
22 57 30 30 12 -39z m-162 39 c-3 -8 -6 -5 -6 6 -1 11 2 17 5 13 3 -3 4 -12 1
-19z m3201 -1 c23 -18 12 -27 -17 -13 -26 14 -39 14 -112 1 -104 -19 -111 -18
-74 3 29 16 145 32 175 23 8 -2 21 -8 28 -14z m-2286 -15 c-13 -4 -4 -32 10
-32 5 0 6 5 2 12 -4 7 -3 8 5 4 6 -4 9 -12 5 -17 -3 -5 -1 -16 5 -23 13 -15
51 -122 51 -142 0 -7 -11 -26 -25 -41 -21 -24 -24 -26 -25 -9 0 11 9 29 20 41
l21 22 -31 64 c-16 35 -39 79 -50 97 -22 37 -18 61 7 40 9 -7 11 -14 5 -16z
m338 13 c7 -9 10 -18 7 -22 -8 -7 -37 15 -37 28 0 14 16 11 30 -6z m678 -15
c3 -21 2 -22 -12 -11 -19 16 -21 44 -3 39 6 -3 14 -15 15 -28z m1842 20 c0 -5
-4 -10 -10 -10 -5 0 -10 5 -10 10 0 6 5 10 10 10 6 0 10 -4 10 -10z m-3305 -9
c-13 -11 -115 -20 -115 -10 0 7 32 13 100 17 14 1 20 -2 15 -7z m98 2 c-13 -2
-33 -2 -45 0 -13 2 -3 4 22 4 25 0 35 -2 23 -4z m655 -28 c7 -14 12 -29 12
-33 -1 -10 -40 38 -40 49 0 18 17 8 28 -16z m-32 -10 c8 -13 13 -29 9 -35 -8
-13 -45 40 -38 53 7 11 12 9 29 -18z m264 -16 c0 -20 -21 -30 -50 -22 -30 8
-24 49 8 45 13 -2 22 2 22 10 0 20 20 -13 20 -33z m1767 18 c13 -14 -4 -16
-41 -6 -24 7 -41 7 -45 1 -3 -5 -26 -12 -51 -16 -25 -4 -63 -16 -85 -26 -35
-17 -27 -18 25 -3 8 3 6 -1 -5 -8 -11 -7 -26 -14 -34 -15 -8 -2 -17 -8 -21
-15 -4 -6 -39 -22 -76 -35 -51 -18 -79 -35 -109 -66 -22 -24 -43 -42 -46 -41
-4 1 -5 -5 -3 -15 2 -9 -9 -44 -25 -77 -24 -48 -29 -55 -30 -34 -1 14 6 48 14
75 20 65 19 74 -5 44 -25 -32 -26 -10 -1 38 23 43 91 102 91 78 0 -8 -10 -31
-21 -51 -26 -44 -19 -57 9 -17 57 79 197 171 292 192 41 8 157 6 167 -3z m43
-2 c7 -9 8 -15 2 -15 -5 0 -12 7 -16 15 -3 8 -4 15 -2 15 2 0 9 -7 16 -15z
m-2110 -14 c5 -11 10 -28 10 -38 -1 -16 -3 -15 -20 6 -21 25 -26 51 -10 51 5
0 14 -9 20 -19z m187 7 c21 -27 6 -87 -31 -128 -20 -22 -36 -36 -36 -31 0 5
-12 23 -26 40 l-25 30 47 51 c50 54 56 57 71 38z m638 -8 c0 -8 -8 -16 -17
-18 -13 -2 -18 3 -18 18 0 15 5 20 18 18 9 -2 17 -10 17 -18z m-862 -48 l-6
-23 -18 27 c-14 21 -15 30 -6 36 18 11 37 -14 30 -40z m527 -38 c0 -48 -3 -65
-12 -62 -17 6 -23 47 -9 61 6 6 11 24 11 39 0 15 2 28 5 28 3 0 5 -30 5 -66z
m1195 26 c-21 -16 -41 -30 -44 -30 -9 1 63 59 73 60 5 0 -8 -13 -29 -30z
m-1395 -10 c0 -5 -4 -10 -10 -10 -5 0 -10 5 -10 10 0 6 5 10 10 10 6 0 10 -4
10 -10z m-523 -6 c-3 -3 -12 -4 -19 -1 -8 3 -5 6 6 6 11 1 17 -2 13 -5z m483
-79 c0 -19 -33 -44 -69 -51 l-32 -7 18 39 c28 62 32 65 59 47 13 -8 24 -21 24
-28z m1763 34 c37 -2 -38 -18 -88 -18 -81 -1 -205 -62 -254 -125 -89 -114
-125 -245 -97 -356 5 -24 5 -32 -2 -25 -20 19 -27 77 -21 163 11 153 72 250
194 308 91 42 201 68 243 57 8 -1 19 -3 25 -4z m-1966 -31 l12 -33 -19 24
c-21 24 -26 41 -12 41 4 0 13 -15 19 -32z m1313 -8 c0 -20 -5 -30 -15 -30 -8
0 -15 6 -15 14 0 8 -3 21 -6 30 -4 12 0 16 15 16 17 0 21 -6 21 -30z m-1336
-5 c30 -46 9 -51 -24 -5 -16 23 -18 30 -7 30 8 0 22 -11 31 -25z m1672 13 c-3
-16 -106 -126 -106 -114 0 5 11 29 25 52 32 54 88 96 81 62z m-1703 -38 c10
-16 14 -30 8 -30 -10 0 -41 39 -41 52 0 17 17 6 33 -22z m572 0 c8 -16 15 -47
15 -69 l0 -40 -37 13 c-34 12 -39 17 -44 54 -4 35 -2 44 15 56 29 21 34 20 51
-14z m-585 -58 c0 -3 -7 1 -16 8 -22 19 -36 49 -29 61 5 8 45 -53 45 -69z
m1228 66 c-5 -13 -53 -29 -62 -20 -3 3 -1 11 5 19 14 16 62 18 57 1z m-734
-54 c3 -8 4 -14 2 -14 -11 0 -66 33 -66 40 0 14 58 -10 64 -26z m1413 24 c-9
-7 -35 -53 -57 -103 -38 -86 -58 -145 -165 -490 -59 -188 -145 -425 -155 -425
-4 0 32 117 81 260 77 230 87 266 82 309 -3 29 -1 51 5 55 7 4 9 -6 6 -31 -2
-21 6 3 19 53 25 97 137 351 164 372 9 6 21 12 27 12 5 0 2 -6 -7 -12z m-1963
-14 c3 -8 2 -12 -4 -9 -6 3 -10 10 -10 16 0 14 7 11 14 -7z m-20 -10 c9 -24 7
-28 -9 -14 -17 14 -20 30 -6 30 5 0 12 -7 15 -16z m1586 4 c-1 -18 -59 -126
-60 -111 0 7 6 30 14 50 8 21 17 46 20 56 6 19 26 23 26 5z m-1248 -28 c-18
-16 -34 -30 -35 -30 -2 0 -3 9 -4 21 -1 12 7 23 20 29 44 18 51 10 19 -20z
m958 6 c0 -9 -15 -17 -40 -21 -22 -4 -38 -11 -34 -16 3 -5 -1 -12 -10 -15 -17
-7 -10 -35 7 -29 7 2 24 6 39 9 17 4 28 14 31 29 4 20 4 19 6 -4 0 -15 -5 -31
-11 -36 -15 -12 -166 -38 -174 -31 -6 7 12 88 23 99 4 4 37 12 73 17 92 13 90
13 90 -2z m-1319 -18 c11 -21 11 -22 -4 -9 -10 7 -17 17 -17 22 0 15 9 10 21
-13z m299 7 c0 -9 -9 -15 -25 -15 -23 0 -25 -3 -25 -49 0 -28 -4 -53 -10 -56
-6 -4 -10 14 -10 47 0 47 3 55 28 70 34 22 42 22 42 3z m208 -5 c54 -33 74
-75 68 -144 -2 -36 -12 -69 -23 -84 -27 -36 -71 -67 -80 -57 -5 4 -1 10 7 13
30 11 69 60 76 98 10 54 -13 114 -51 134 -33 17 -45 29 -45 48 0 17 10 15 48
-8z m-70 -2 c21 -21 13 -39 -25 -55 -21 -9 -32 -18 -25 -20 15 -6 16 -42 1
-79 l-10 -28 25 27 c13 14 28 37 31 49 9 29 34 58 50 58 6 0 22 -11 35 -25
l23 -25 -26 0 c-22 0 -27 -5 -27 -23 0 -13 -7 -32 -15 -43 -14 -18 -16 -18
-29 -1 -13 16 -14 16 -20 1 -4 -10 -2 -22 4 -28 15 -15 12 -56 -5 -62 -8 -4
-26 1 -40 10 -22 15 -24 20 -14 39 11 20 11 21 -5 8 -21 -18 -32 -5 -42 49 -8
39 15 116 34 113 7 -2 12 4 12 12 0 9 10 20 23 25 30 12 31 12 45 -2z m1184
-43 c-2 -30 3 -86 12 -124 20 -86 20 -102 2 -95 -16 6 -30 37 -49 114 -13 53
-13 59 9 108 13 29 24 52 26 52 2 0 1 -25 0 -55z m-512 28 c0 -4 -10 -37 -22
-75 -17 -53 -27 -70 -44 -74 -12 -3 -25 -15 -28 -27 -3 -12 -8 -19 -11 -15 -3
3 3 42 13 87 11 44 17 81 13 82 -10 1 53 28 67 29 6 0 12 -3 12 -7z m-900 -37
c0 -8 -4 -17 -9 -20 -10 -7 -23 19 -14 28 11 11 23 6 23 -8z m705 -38 c-4 -29
-9 -70 -10 -92 -4 -46 -19 -66 -37 -48 -10 10 -10 17 -1 31 11 17 14 33 29
129 3 17 10 32 16 32 7 0 8 -17 3 -52z m95 30 c0 -36 -14 -49 -49 -46 -22 2
-30 6 -26 16 3 7 5 22 5 33 0 15 7 19 35 19 30 0 35 -3 35 -22z m-134 -20 c-8
-39 -9 -40 -30 -32 -26 10 -3 63 28 64 5 0 6 -14 2 -32z m564 4 c0 -35 -22
-68 -39 -57 -9 5 -10 10 -2 18 6 6 11 18 11 27 0 14 18 40 27 40 2 0 3 -13 3
-28z m-1260 8 c0 -10 -55 -27 -121 -36 -34 -5 -48 -2 -58 10 -12 14 -8 16 40
17 30 0 63 4 74 9 28 12 65 12 65 0z m633 -2 c7 -22 -4 -47 -24 -53 -10 -4
-19 -11 -19 -16 0 -5 -4 -9 -8 -9 -14 0 -1 64 16 78 9 6 19 12 23 12 4 0 9 -6
12 -12z m-138 -40 c0 -28 4 -33 24 -33 14 0 26 -5 28 -11 2 -7 -11 -11 -35
-11 -36 0 -38 1 -34 28 3 19 0 29 -8 29 -10 0 -10 3 0 15 19 23 26 18 25 -17z
m-475 4 c0 -14 -90 -52 -133 -58 -49 -6 -82 9 -57 26 8 5 31 10 50 10 19 1 58
7 85 15 28 7 51 14 53 14 1 1 2 -3 2 -7z m345 -21 c10 -33 -38 -121 -67 -121
-14 0 -9 55 7 76 8 10 15 29 15 42 0 28 36 31 45 3z m745 8 c-13 -6 -33 -17
-43 -26 -17 -16 -17 -16 -11 1 5 14 3 17 -7 14 -8 -3 -13 -12 -11 -21 2 -10
-8 -18 -29 -22 -42 -10 -59 8 -33 36 15 17 27 20 61 16 22 -2 47 -1 55 4 7 5
20 8 28 8 8 0 4 -5 -10 -10z m-1002 -26 c-2 -22 -8 -28 -27 -28 -14 0 -26 -6
-29 -13 -2 -7 2 -10 12 -6 20 8 22 -28 4 -44 -16 -12 -56 2 -64 22 -7 19 23
63 55 81 40 22 53 19 49 -12z m495 -35 c-10 -18 -39 -47 -63 -65 -25 -17 -67
-51 -94 -75 -34 -30 -45 -36 -37 -20 16 30 77 87 122 113 20 12 47 40 60 62
12 23 24 36 27 29 2 -7 -5 -27 -15 -44z m631 0 c-8 -50 -33 -103 -55 -116 -23
-14 -25 -3 -4 24 8 10 15 31 15 47 0 15 4 27 9 27 5 0 8 11 5 25 -3 20 0 25
16 25 17 0 19 -5 14 -32z m-1108 -34 c-5 -13 -10 -14 -18 -6 -6 6 -8 18 -4 28
5 13 10 14 18 6 6 -6 8 -18 4 -28z m36 -93 l33 -34 -33 19 c-46 26 -76 60 -67
75 6 9 12 7 21 -7 8 -10 28 -34 46 -53z m83 13 c35 -8 65 -31 65 -51 0 -17
-14 -17 -29 1 -6 8 -26 20 -44 27 -38 15 -97 58 -97 70 0 5 17 -2 38 -15 20
-14 51 -28 67 -32z m413 9 c-45 -47 -231 -188 -226 -171 2 7 44 45 94 83 49
39 102 85 118 102 17 18 34 29 39 26 5 -3 -6 -21 -25 -40z m252 11 c-50 -28
-100 -72 -100 -88 0 -5 12 1 28 15 44 40 58 49 91 59 85 24 -75 -83 -183 -122
-66 -24 -91 -29 -135 -25 -50 5 -76 21 -65 39 9 14 79 28 142 28 77 0 76 20
-1 21 l-52 1 65 12 c63 11 124 40 150 71 8 9 30 15 59 15 l46 0 -45 -26z
m-952 -6 c7 -7 12 -22 12 -35 0 -17 -4 -21 -17 -16 -14 5 -16 3 -6 -7 7 -7 29
-16 50 -20 37 -8 37 -8 6 -9 -56 -2 -80 13 -85 54 -2 19 -2 38 1 40 8 9 27 5
39 -7z m102 2 c4 0 6 -9 3 -20 -6 -22 -57 -29 -69 -8 -4 7 -3 8 5 4 7 -4 19
-5 28 -2 13 5 13 9 2 23 -12 15 -12 16 4 10 10 -4 22 -7 27 -7z m1290 -43 c0
-20 -1 -20 -16 -5 -9 9 -13 21 -9 27 10 16 25 3 25 -22z m-126 -12 c9 -13 16
-27 16 -31 0 -10 -30 17 -41 38 -15 27 6 22 25 -7z m-131 -30 c-6 -17 -23 -20
-23 -5 0 6 5 10 11 10 5 0 7 5 3 12 -4 7 -3 8 4 4 6 -4 9 -13 5 -21z m241 19
c35 -13 1 -94 -39 -94 -29 0 -31 13 -10 64 16 37 22 41 49 30z m-304 -64 c-18
-14 -27 -15 -32 -7 -13 20 -9 30 7 17 18 -15 20 1 3 19 -10 11 -10 13 0 7 7
-4 12 -2 12 6 0 8 6 6 18 -5 16 -17 16 -19 -8 -37z m-1109 23 c13 -16 12 -17
-3 -4 -17 13 -22 21 -14 21 2 0 10 -8 17 -17z m1215 -4 c7 -13 -82 -98 -103
-99 -16 0 -22 22 -11 42 10 20 77 68 95 68 6 0 15 -5 19 -11z m108 -14 c14
-37 -108 -131 -204 -159 l-55 -15 30 24 c17 14 40 25 53 25 16 0 45 22 90 70
36 39 69 70 73 70 4 0 9 -7 13 -15z m-959 -5 c-3 -5 -11 -10 -16 -10 -6 0 -33
-15 -62 -33 -81 -52 -81 -52 -72 -37 9 14 -20 7 -69 -16 -26 -12 -27 -12 -15
4 8 9 27 29 44 44 34 30 20 36 -30 12 -25 -12 -38 -13 -54 -5 -11 6 -29 11
-41 11 -12 0 -18 5 -15 10 3 6 34 10 68 11 34 1 89 5 122 9 93 11 147 11 140
0z m705 -36 c0 -22 -22 -12 -31 14 -8 20 -6 21 11 12 11 -6 20 -18 20 -26z
m-32 -30 c-4 -3 -12 5 -18 18 -12 22 -12 22 6 6 10 -10 15 -20 12 -24z m158
-10 c-22 -19 -42 -31 -45 -28 -3 3 12 20 34 39 22 18 42 31 45 28 3 -3 -13
-20 -34 -39z m-182 10 c4 -10 1 -14 -6 -12 -15 5 -23 28 -10 28 5 0 13 -7 16
-16z m386 -9 c7 -8 9 -23 5 -32 -6 -17 -7 -17 -16 0 -6 9 -15 17 -20 17 -6 0
-7 -4 -4 -10 3 -5 3 -10 -2 -10 -12 1 -43 26 -43 35 0 4 7 1 16 -6 13 -11 17
-10 25 4 12 21 23 22 39 2z m-424 -18 c-11 -7 -51 -45 -90 -84 -63 -66 -96
-88 -96 -65 0 23 168 163 194 161 6 0 2 -6 -8 -12z m-536 -5 c0 -7 -114 -52
-170 -68 -50 -13 -7 12 73 43 90 35 97 37 97 25z m460 -6 c0 -2 -7 -9 -15 -16
-13 -11 -14 -10 -9 4 5 14 24 23 24 12z m-424 -53 c-10 -10 -19 5 -10 18 6 11
8 11 12 0 2 -7 1 -15 -2 -18z m89 17 c-3 -5 -10 -10 -16 -10 -5 0 -9 5 -9 10
0 6 7 10 16 10 8 0 12 -4 9 -10z m935 -15 c-204 -59 -608 -170 -660 -180 -86
-18 -8 9 160 55 101 28 187 55 191 61 4 6 25 13 48 15 23 2 63 11 89 20 60 20
159 42 192 42 16 0 9 -4 -20 -13z m-905 -5 c3 -5 -1 -10 -9 -10 -9 0 -16 5
-16 10 0 6 4 10 9 10 6 0 13 -4 16 -10z m1029 -46 c-9 -27 -20 -52 -24 -57 -3
-4 -23 6 -44 22 l-37 30 58 29 c32 17 59 29 60 28 2 -2 -4 -25 -13 -52z m-949
1 c30 -20 55 -40 55 -45 0 -19 -22 -21 -41 -4 -10 9 -22 15 -25 11 -8 -8 -64
13 -64 25 0 5 10 7 23 3 l22 -6 -23 18 c-13 10 -20 22 -16 26 10 10 8 11 69
-28z m-145 9 c0 -8 -4 -12 -10 -9 -5 3 -10 10 -10 16 0 5 5 9 10 9 6 0 10 -7
10 -16z m40 -19 c0 -8 -4 -15 -10 -15 -5 0 -10 7 -10 15 0 8 5 15 10 15 6 0
10 -7 10 -15z m-256 -20 c-4 -10 0 -15 11 -15 13 0 10 -8 -15 -40 -40 -50 -64
-54 -55 -7 4 17 13 42 21 55 16 25 47 31 38 7z m806 11 c0 -2 -60 -19 -132
-36 -73 -18 -135 -35 -138 -39 -13 -19 -251 -54 -266 -39 -8 9 49 24 186 48
63 11 162 30 220 44 113 25 130 28 130 22z m345 -16 c5 -8 11 -7 20 0 8 7 24
9 37 4 19 -6 10 -11 -52 -31 -41 -13 -84 -25 -95 -28 -11 -2 -29 -6 -40 -9
-90 -21 -110 -24 -117 -20 -4 3 -8 0 -8 -6 0 -6 -5 -8 -10 -5 -6 4 -17 1 -25
-5 -11 -9 -17 -7 -27 9 -7 12 -17 21 -22 21 -5 0 -1 -9 9 -20 17 -19 17 -20
-1 -21 -15 -1 -16 -2 -3 -6 13 -3 265 56 399 93 23 7 24 6 10 -11 -14 -17 -13
-18 5 -11 33 12 39 12 42 -5 3 -12 -9 -20 -41 -29 -27 -7 -43 -17 -39 -23 4
-6 0 -8 -11 -4 -24 10 -72 -3 -55 -14 9 -5 1 -8 -21 -7 -19 1 -86 -13 -149
-30 l-113 -31 -40 20 c-21 11 -36 24 -33 29 3 4 -9 18 -25 30 -36 25 -35 29 8
35 17 2 41 6 52 10 12 4 28 1 37 -7 14 -11 16 -11 11 3 -5 12 6 18 51 27 31 6
70 9 86 6 21 -4 26 -3 16 4 -10 7 3 14 50 25 80 19 86 19 94 7z m-975 -44 c0
-2 -7 -6 -15 -10 -8 -3 -15 -1 -15 4 0 6 7 10 15 10 8 0 15 -2 15 -4z m-106
-35 c4 -5 -7 -38 -24 -73 -33 -69 -39 -67 -14 5 13 38 14 51 4 62 -10 12 -9
15 8 15 12 0 23 -4 26 -9z m-82 -28 c-10 -4 -9 -8 3 -17 12 -8 14 -18 7 -35
-7 -19 -17 -24 -48 -26 -21 -2 -52 -5 -67 -8 -27 -5 -28 -4 -14 16 8 12 20 22
27 22 6 0 17 7 23 15 13 16 55 39 72 39 6 -1 4 -3 -3 -6z m528 -10 c-1 -18
-17 -32 -45 -38 -65 -15 -67 -16 -61 -39 5 -21 -1 -25 -99 -51 -84 -23 -105
-33 -105 -47 0 -23 -18 -23 -55 2 -31 21 -71 27 -60 10 3 -5 15 -10 26 -10 10
0 19 -4 19 -10 0 -16 -25 -11 -53 10 -14 11 -34 20 -45 20 -12 0 -24 5 -27 10
-3 6 -2 10 4 10 5 0 16 12 23 27 7 15 31 40 53 55 39 27 46 29 185 33 80 3
163 9 185 14 55 12 55 12 55 4z m230 -3 c8 -5 11 -10 5 -10 -5 0 -17 5 -25 10
-8 5 -10 10 -5 10 6 0 17 -5 25 -10z m490 -15 c0 -3 -10 -10 -22 -15 -22 -8
-21 -9 7 -9 34 -1 22 -20 -16 -25 -13 -1 -37 -8 -52 -14 -34 -14 -67 -16 -67
-3 0 11 25 21 50 21 11 0 27 8 37 19 22 23 63 40 63 26z m-539 -16 c11 -6 18
-16 16 -24 -6 -15 168 -99 184 -89 11 6 -34 34 -55 34 -7 0 -37 12 -67 27 -36
18 -48 28 -36 31 24 5 89 -17 82 -29 -4 -5 1 -6 10 -3 8 4 26 -1 40 -10 20
-13 33 -15 61 -7 37 10 68 5 58 -10 -3 -5 1 -6 9 -3 8 3 21 -1 29 -9 8 -8 46
-30 84 -48 75 -36 67 -52 -11 -25 -45 15 -56 11 -33 -12 12 -12 8 -15 -45 -26
-19 -5 -29 -2 -33 9 -4 8 -14 15 -24 15 -11 0 -22 5 -26 11 -3 6 1 10 12 9 75
-8 126 11 69 26 -14 3 -25 10 -25 14 0 10 -70 43 -77 37 -3 -3 8 -12 24 -21
16 -8 35 -22 42 -30 12 -14 9 -16 -24 -16 -28 0 -38 -5 -42 -20 -3 -11 -9 -17
-14 -14 -5 3 -9 0 -9 -5 0 -6 -9 -11 -21 -11 -21 0 -21 0 2 20 l24 20 -28 -10
c-21 -7 -26 -7 -21 2 5 8 2 9 -9 5 -10 -4 -24 -10 -32 -13 -9 -4 -17 1 -21 10
-6 15 -104 73 -104 61 0 -2 18 -14 40 -25 22 -11 40 -22 40 -25 0 -7 -219 100
-220 108 0 4 18 -2 41 -13 23 -12 43 -19 46 -16 5 5 -56 46 -69 46 -5 0 -8 4
-8 9 0 8 66 27 103 30 10 0 27 -4 38 -10z m44 -7 c-3 -3 -11 0 -18 7 -9 10 -8
11 6 5 10 -3 15 -9 12 -12z m415 -2 c0 -5 -5 -10 -11 -10 -5 0 -7 5 -4 10 3 6
8 10 11 10 2 0 4 -4 4 -10z m-669 -16 c-18 -8 -43 -13 -55 -11 -17 3 -14 5 14
14 53 17 82 14 41 -3z m614 7 c-16 -14 -55 -23 -55 -12 0 9 20 17 50 20 8 1
10 -2 5 -8z m-1135 -36 c0 -13 -40 -67 -65 -86 l-28 -23 19 30 18 29 -22 -19
c-16 -14 -22 -16 -22 -5 0 32 13 57 33 67 23 11 67 16 67 7z m1085 -5 c-3 -5
-15 -10 -25 -10 -10 0 -22 5 -25 10 -4 6 7 10 25 10 18 0 29 -4 25 -10z m160
-17 c-21 -14 -35 -16 -59 -7 -39 15 10 36 58 25 18 -4 18 -5 1 -18z m-1477 -5
c-9 -7 -26 -24 -38 -38 -12 -14 -18 -18 -14 -10 11 23 46 60 58 60 5 0 3 -6
-6 -12z m262 -3 c0 -2 -10 -10 -22 -16 -21 -11 -22 -11 -9 4 13 16 31 23 31
12z m456 -3 c-3 -5 7 -15 22 -23 15 -7 38 -20 51 -28 22 -14 22 -15 5 -22 -17
-7 -17 -8 3 -8 51 -2 69 -31 18 -31 -32 0 -56 10 -49 21 3 5 -7 9 -21 9 -33 0
-88 28 -80 40 4 6 4 10 2 10 -16 0 -137 -42 -142 -49 -7 -13 -47 -1 -42 13 2
6 44 20 93 30 49 11 91 23 94 27 3 4 14 9 25 12 11 2 21 5 23 6 2 0 1 -3 -2
-7z m34 -2 c0 -5 -4 -10 -10 -10 -5 0 -10 5 -10 10 0 6 5 10 10 10 6 0 10 -4
10 -10z m592 -2 c-9 -9 -15 -9 -24 0 -9 9 -7 12 12 12 19 0 21 -3 12 -12z
m-539 -14 c11 -11 -3 -24 -18 -18 -8 4 -12 10 -9 15 6 11 18 12 27 3z m627
-14 c0 -13 -11 -13 -30 0 -12 8 -11 10 8 10 12 0 22 -4 22 -10z m-1075 -46
c49 -25 98 -52 109 -60 36 -25 41 -15 6 11 -45 33 -32 32 41 -6 34 -17 63 -28
66 -25 3 2 -14 14 -37 26 -23 12 -39 24 -36 27 8 9 97 -47 91 -58 -4 -5 2 -9
12 -9 17 -1 17 -1 0 -11 -14 -8 -28 -5 -60 11 -41 22 -42 22 -23 1 23 -25 15
-52 -14 -46 -17 3 -19 0 -15 -23 4 -20 2 -18 -8 8 -12 30 -12 35 0 38 8 2 20
-2 28 -8 9 -7 15 -8 15 -2 0 23 -29 33 -74 27 -39 -6 -52 -3 -91 20 -43 25
-45 28 -28 40 16 12 13 14 -29 11 -26 -1 -46 2 -45 7 1 5 -4 12 -12 15 -9 3
-11 0 -6 -8 5 -8 4 -11 -3 -6 -6 4 -9 13 -7 21 3 8 7 22 10 30 6 21 11 20 110
-31z m504 37 c11 -7 9 -10 -8 -16 -24 -7 -44 2 -36 16 8 11 26 11 44 0z m-179
-36 c13 -14 29 -24 35 -21 6 2 22 -2 36 -9 l24 -13 -29 -11 c-30 -12 -62 1
-50 21 4 6 -4 8 -17 7 -13 -2 -34 3 -47 10 -22 12 -22 11 -10 -8 7 -12 20 -21
30 -21 24 0 33 -19 13 -26 -16 -6 -135 43 -135 55 0 6 92 37 116 40 6 0 21
-10 34 -24z m232 2 c7 -8 27 -18 43 -24 26 -9 28 -12 11 -18 -11 -5 -27 -3
-37 3 -10 7 -26 12 -35 12 -8 0 -25 5 -36 11 -17 9 -18 13 -7 20 20 13 46 11
61 -4z m-7 -47 c3 -5 19 -10 36 -10 16 0 29 -4 29 -9 0 -11 -36 -21 -75 -20
l-30 0 25 11 c14 6 20 12 13 15 -7 2 -21 -1 -32 -7 -15 -8 -27 -8 -43 0 -21
10 -22 10 -5 -4 18 -14 18 -15 -3 -26 -17 -9 -29 -9 -51 0 -36 15 -37 28 -1
36 15 3 41 10 57 14 43 12 73 12 80 0z m370 -20 c3 -5 2 -10 -4 -10 -5 0 -13
5 -16 10 -3 6 -2 10 4 10 5 0 13 -4 16 -10z m47 -12 c-6 -6 -15 -8 -19 -4 -4
4 -1 11 7 16 19 12 27 3 12 -12z m-1082 2 c0 -5 -4 -10 -10 -10 -5 0 -10 5
-10 10 0 6 5 10 10 10 6 0 10 -4 10 -10z m485 -12 c14 -6 24 -17 21 -24 -5
-14 31 -11 88 7 16 5 32 7 34 4 3 -3 0 -5 -7 -5 -7 0 -10 -4 -7 -9 3 -5 -11
-16 -32 -24 -36 -14 -39 -14 -96 15 -44 22 -56 32 -45 39 17 11 13 11 44 -3z
m289 -20 c-8 -13 -51 -9 -63 6 -10 12 -8 15 11 18 26 4 59 -12 52 -24z m-707
-15 c-8 -7 -56 20 -51 28 3 5 16 1 30 -7 13 -9 23 -19 21 -21z m632 8 c9 -10
26 -21 39 -25 29 -10 28 -26 -2 -26 -30 0 -82 42 -72 58 10 16 16 15 35 -7z
m-579 5 c0 -3 -4 -8 -10 -11 -5 -3 -10 -1 -10 4 0 6 5 11 10 11 6 0 10 -2 10
-4z m694 -12 c28 -11 17 -24 -18 -24 -36 0 -56 14 -34 23 19 8 34 8 52 1z
m-474 -30 c0 -2 -7 -4 -15 -4 -8 0 -15 4 -15 10 0 5 7 7 15 4 8 -4 15 -8 15
-10z m324 7 c7 -11 -41 -24 -54 -16 -6 4 -10 10 -10 16 0 12 57 12 64 0z"/>
<path d="M2230 4500 l-25 -8 25 0 c14 0 34 3 45 8 l20 9 -20 -1 c-11 0 -31 -4
-45 -8z"/>
<path d="M2096 4369 c38 -11 163 -124 205 -185 16 -24 34 -44 40 -44 24 0
-115 160 -185 211 -21 16 -51 29 -65 28 -25 -1 -24 -1 5 -10z"/>
<path d="M2170 4039 c-11 -20 -11 -20 14 -4 30 20 32 25 11 25 -8 0 -19 -9
-25 -21z"/>
<path d="M1285 3360 c-27 -7 -27 -8 -5 -8 14 0 39 4 55 8 27 7 27 8 5 8 -14 0
-38 -4 -55 -8z"/>
<path d="M1690 3311 c0 -6 4 -13 10 -16 6 -3 7 1 4 9 -7 18 -14 21 -14 7z"/>
<path d="M1410 3300 c-27 -6 -29 -8 -10 -8 14 -1 43 3 65 7 33 7 35 9 10 9
-16 -1 -46 -4 -65 -8z"/>
<path d="M983 3048 c-65 -102 -85 -169 -88 -303 -3 -106 -3 -107 5 -30 13 137
40 236 80 295 24 35 62 110 55 110 -3 0 -26 -33 -52 -72z"/>
<path d="M975 3079 c-4 -6 -5 -12 -2 -15 2 -3 7 2 10 11 7 17 1 20 -8 4z"/>
<path d="M881 2495 l2 -130 8 120 c5 74 4 124 -1 129 -7 7 -9 -37 -9 -119z"/>
<path d="M1900 3866 c0 -3 15 -15 33 -27 23 -17 28 -18 18 -6 -14 18 -51 42
-51 33z"/>
<path d="M1926 3471 c2 -30 6 -57 9 -59 8 -8 4 60 -5 88 -6 17 -7 8 -4 -29z"/>
<path d="M1798 3483 c6 -2 18 -2 25 0 6 3 1 5 -13 5 -14 0 -19 -2 -12 -5z"/>
<path d="M664 2340 c0 -85 2 -120 3 -77 2 42 2 112 0 155 -1 42 -3 7 -3 -78z"/>
<path d="M800 2315 c-5 -39 -6 -40 -42 -37 -33 2 -39 -1 -53 -28 -11 -21 -14
-43 -10 -63 11 -53 16 -68 23 -63 10 6 47 -23 39 -30 -4 -4 -15 -1 -24 7 -17
12 -17 12 -1 -5 21 -24 43 -15 63 24 12 23 15 54 13 133 -2 59 -5 85 -8 62z
m-26 -80 c16 -12 18 -17 7 -28 -11 -9 -14 -9 -18 1 -3 6 -12 12 -21 12 -15 -1
-15 -2 1 -11 9 -5 17 -17 17 -24 0 -8 7 -15 16 -15 9 0 14 -7 12 -17 -4 -22
-28 -29 -28 -9 0 9 -4 16 -10 16 -5 0 -6 -7 -3 -17 4 -11 3 -14 -5 -9 -7 4
-12 20 -12 35 0 15 -5 32 -12 39 -8 8 -8 15 2 27 15 19 29 19 54 0z"/>
<path d="M1490 3066 c0 -2 11 -6 25 -8 13 -3 22 -1 19 3 -5 9 -44 13 -44 5z"/>
<path d="M1564 2573 c23 -43 79 -120 72 -100 -7 21 -76 127 -82 127 -3 0 2
-12 10 -27z"/>
<path d="M1249 2397 c-8 -25 -5 -45 9 -53 14 -9 17 -7 19 17 1 16 -4 29 -12
33 -8 3 -15 4 -16 3z"/>
<path d="M1216 2365 c-9 -26 -7 -32 5 -12 6 10 9 21 6 23 -2 3 -7 -2 -11 -11z"/>
<path d="M1224 2317 c-3 -18 -11 -35 -17 -38 -5 -4 0 -10 12 -14 27 -8 27 -9
35 36 5 27 3 38 -8 42 -10 4 -17 -4 -22 -26z"/>
<path d="M1102 2255 c-14 -31 -16 -65 -3 -65 7 0 22 79 16 88 -1 1 -7 -9 -13
-23z"/>
<path d="M1487 2203 c-4 -3 -7 -13 -7 -22 1 -13 3 -13 11 2 11 19 8 33 -4 20z"/>
<path d="M1311 2139 c-6 -18 -9 -34 -7 -36 2 -2 9 10 15 28 6 18 9 34 7 36 -2
2 -9 -10 -15 -28z"/>
<path d="M1340 2161 c0 -5 -3 -17 -6 -25 -5 -12 -2 -15 10 -10 9 3 16 1 16 -5
0 -6 7 -11 15 -11 18 0 20 31 3 48 -14 14 -38 16 -38 3z"/>
<path d="M3455 2645 c17 -13 35 -24 40 -24 6 0 -3 11 -20 24 -16 14 -34 25
-40 25 -5 0 4 -11 20 -25z"/>
<path d="M3371 2594 c0 -11 3 -14 6 -6 3 7 2 16 -1 19 -3 4 -6 -2 -5 -13z"/>
<path d="M2951 2439 c-55 -9 -80 -20 -45 -18 10 0 51 6 89 13 78 15 41 19 -44
5z"/>
<path d="M2843 2413 c9 -2 23 -2 30 0 6 3 -1 5 -18 5 -16 0 -22 -2 -12 -5z"/>
<path d="M2798 2403 c7 -3 16 -2 19 1 4 3 -2 6 -13 5 -11 0 -14 -3 -6 -6z"/>
<path d="M2698 2383 c7 -3 16 -2 19 1 4 3 -2 6 -13 5 -11 0 -14 -3 -6 -6z"/>
<path d="M3048 2363 c7 -3 16 -2 19 1 4 3 -2 6 -13 5 -11 0 -14 -3 -6 -6z"/>
<path d="M2988 2353 c7 -3 16 -2 19 1 4 3 -2 6 -13 5 -11 0 -14 -3 -6 -6z"/>
<path d="M2550 2241 c0 -11 5 -23 10 -26 6 -4 10 5 10 19 0 14 -4 26 -10 26
-5 0 -10 -9 -10 -19z"/>
<path d="M2690 1900 c-13 -8 -12 -10 3 -10 9 0 17 5 17 10 0 12 -1 12 -20 0z"/>
<path d="M3270 1904 c-3 -6 -16 -15 -29 -19 -18 -5 -22 -4 -16 5 5 9 4 11 -3
6 -7 -4 -12 -14 -12 -22 0 -12 7 -14 33 -9 39 9 40 9 35 32 -2 10 -6 13 -8 7z"/>
<path d="M2755 1879 c-74 -10 -89 -17 -76 -37 8 -13 41 -6 41 8 0 5 18 6 40 3
24 -4 40 -2 40 5 0 5 9 8 20 5 14 -4 20 0 20 11 0 9 -3 15 -7 15 -5 -1 -39 -6
-78 -10z"/>
<path d="M3176 1881 c-4 -7 -5 -15 -2 -18 9 -9 19 4 14 18 -4 11 -6 11 -12 0z"/>
<path d="M3040 1851 c0 -12 4 -21 10 -21 5 0 6 8 3 18 -6 15 -5 16 12 2 16
-13 18 -13 13 0 -8 24 -38 25 -38 1z"/>
<path d="M3090 1860 c0 -5 5 -10 10 -10 6 0 10 5 10 10 0 6 -4 10 -10 10 -5 0
-10 -4 -10 -10z"/>
<path d="M3129 1843 c-12 -31 -6 -53 16 -53 14 0 20 14 15 35 -2 6 -2 18 -2
28 1 26 -17 20 -29 -10z"/>
<path d="M2993 1853 c-20 -7 -15 -23 7 -23 11 0 20 4 20 9 0 13 -12 19 -27 14z"/>
<path d="M2935 1839 c-10 -15 1 -23 20 -15 9 3 13 10 10 16 -8 13 -22 13 -30
-1z"/>
<path d="M3217 1838 c-26 -20 -6 -42 32 -33 22 5 31 12 31 26 0 22 -36 26 -63
7z"/>
<path d="M2824 1826 c-5 -13 -9 -14 -20 -5 -11 9 -14 8 -14 -7 -1 -18 -1 -18
-15 0 -13 17 -15 18 -21 2 -10 -25 0 -29 53 -20 30 6 48 14 48 23 0 21 -24 26
-31 7z"/>
<path d="M2875 1831 c-3 -5 -1 -12 5 -16 5 -3 10 -2 10 4 0 6 7 7 17 4 11 -4
14 -3 9 5 -9 14 -33 16 -41 3z"/>
<path d="M2701 1821 c-8 -5 -9 -11 -3 -15 5 -3 12 1 16 9 6 17 6 18 -13 6z"/>
<path d="M2988 1808 c-47 -8 -58 -14 -58 -29 0 -22 3 -22 70 -8 39 8 50 15 50
30 0 10 -1 18 -2 18 -2 -1 -29 -6 -60 -11z m17 -18 c-3 -5 -10 -10 -16 -10 -5
0 -9 5 -9 10 0 6 7 10 16 10 8 0 12 -4 9 -10z"/>
<path d="M3070 1805 c0 -8 5 -15 10 -15 6 0 10 7 10 15 0 8 -4 15 -10 15 -5 0
-10 -7 -10 -15z"/>
<path d="M2695 1791 c-11 -5 -45 -12 -75 -17 -30 -4 -48 -9 -39 -11 12 -3 15
-11 11 -25 -4 -18 -2 -20 21 -16 15 3 27 1 27 -3 0 -5 9 -9 20 -9 16 0 20 7
20 30 0 23 5 31 25 36 14 3 25 10 25 15 0 11 -8 11 -35 0z"/>
<path d="M2865 1791 c-46 -10 -39 -35 10 -36 34 0 40 3 43 23 4 23 -1 24 -53
13z"/>
<path d="M3243 1785 c-3 -9 -3 -19 1 -22 8 -9 37 18 30 28 -8 14 -24 11 -31
-6z"/>
<path d="M2780 1768 c0 -6 -7 -8 -15 -4 -9 3 -15 0 -15 -10 0 -11 7 -13 28 -8
24 6 53 23 42 25 -3 0 -13 2 -22 4 -10 2 -18 -1 -18 -7z"/>
<path d="M3172 1772 c-20 -6 -32 -22 -17 -22 3 0 16 0 30 0 16 0 25 6 25 15 0
16 -3 17 -38 7z"/>
<path d="M2711 1760 c-7 -4 -12 -13 -10 -19 3 -8 10 -8 23 2 21 15 9 31 -13
17z"/>
<path d="M3070 1760 c13 -9 13 -11 0 -19 -16 -11 -7 -27 9 -16 18 11 13 45 -6
45 -15 0 -16 -2 -3 -10z"/>
<path d="M3110 1750 c0 -19 3 -21 12 -12 9 9 9 15 0 24 -9 9 -12 7 -12 -12z"/>
<path d="M2978 1754 c-8 -7 2 -44 12 -44 5 0 6 9 3 19 -3 13 1 21 14 24 16 4
15 5 -3 6 -11 0 -23 -2 -26 -5z"/>
<path d="M3040 1746 c0 -8 -6 -17 -12 -19 -8 -3 -6 -6 5 -6 11 -1 17 6 17 19
0 11 -2 20 -5 20 -3 0 -5 -6 -5 -14z"/>
<path d="M2847 1733 c-20 -3 -27 -9 -25 -21 4 -21 38 -29 38 -9 0 10 12 14 41
14 22 0 45 5 52 12 11 11 -42 13 -106 4z"/>
<path d="M2484 1719 c-2 -4 0 -10 5 -14 12 -7 61 4 61 14 0 10 -60 10 -66 0z"/>
<path d="M2707 1716 c-8 -9 -21 -16 -27 -16 -7 0 -10 -8 -7 -19 4 -18 -16 -37
-35 -33 -5 1 -8 -5 -8 -13 0 -18 -1 -18 39 -4 24 9 31 16 28 30 -3 10 1 26 9
36 8 11 13 13 14 6 0 -15 80 -15 80 -1 0 15 -30 21 -44 9 -11 -10 -16 -9 -24
4 -8 15 -10 15 -25 1z"/>
<path d="M2585 1687 c-4 -10 -5 -21 -1 -24 10 -10 18 4 13 24 -4 17 -4 17 -12
0z"/>
<path d="M2626 1691 c-3 -5 3 -11 14 -14 13 -3 20 0 20 9 0 15 -26 19 -34 5z"/>
<path d="M2477 1673 c-13 -12 -7 -23 13 -23 11 0 20 7 20 15 0 15 -21 21 -33
8z"/>
<path d="M2530 1670 c0 -5 5 -10 11 -10 5 0 7 5 4 10 -3 6 -8 10 -11 10 -2 0
-4 -4 -4 -10z"/>
<path d="M2720 1655 c0 -8 5 -15 10 -15 6 0 10 7 10 15 0 8 -4 15 -10 15 -5 0
-10 -7 -10 -15z"/>
<path d="M2577 1643 c-12 -11 -8 -23 8 -23 8 0 15 7 15 15 0 16 -12 20 -23 8z"/>
<path d="M2472 1623 c2 -10 10 -18 18 -18 8 0 16 8 18 18 2 12 -3 17 -18 17
-15 0 -20 -5 -18 -17z"/>
<path d="M2530 1625 c0 -8 5 -15 10 -15 6 0 10 7 10 15 0 8 -4 15 -10 15 -5 0
-10 -7 -10 -15z"/>
<path d="M3595 2280 c3 -5 8 -10 11 -10 2 0 4 5 4 10 0 6 -5 10 -11 10 -5 0
-7 -4 -4 -10z"/>
<path d="M3216 2169 c3 -6 0 -15 -7 -20 -14 -9 37 -2 54 8 17 10 4 23 -24 23
-19 0 -28 -4 -23 -11z"/>
<path d="M2718 2143 c6 -2 18 -2 25 0 6 3 1 5 -13 5 -14 0 -19 -2 -12 -5z"/>
<path d="M2615 2130 l-30 -8 30 0 c17 0 44 4 60 8 l30 8 -30 0 c-16 0 -43 -4
-60 -8z"/>
<path d="M993 1943 c9 -2 25 -2 35 0 9 3 1 5 -18 5 -19 0 -27 -2 -17 -5z"/>
<path d="M1058 1933 c6 -2 18 -2 25 0 6 3 1 5 -13 5 -14 0 -19 -2 -12 -5z"/>
<path d="M3080 1960 c-13 -8 -12 -10 3 -10 9 0 17 5 17 10 0 12 -1 12 -20 0z"/>
<path d="M3025 1950 c-18 -8 -17 -9 8 -9 16 -1 26 3 22 9 -3 6 -7 10 -8 9 -1
0 -11 -4 -22 -9z"/>
<path d="M2150 1906 c0 -28 26 -42 32 -18 7 24 -1 42 -18 42 -8 0 -14 -10 -14
-24z"/>
<path d="M2140 1830 c0 -13 7 -20 20 -20 14 0 20 6 19 23 -1 16 -2 18 -6 5 -2
-10 -9 -18 -15 -18 -5 0 -8 7 -4 15 3 8 1 15 -4 15 -6 0 -10 -9 -10 -20z"/>
<path d="M2151 1753 c-1 -14 5 -23 14 -23 9 0 15 9 15 23 0 16 -3 18 -9 8 -7
-11 -9 -11 -14 0 -3 8 -6 4 -6 -8z"/>
<path d="M2155 1700 c-7 -12 2 -30 16 -30 12 0 12 27 0 35 -5 3 -12 1 -16 -5z"/>
<path d="M921 1757 c-5 -5 -28 -10 -50 -11 -25 0 -43 -6 -46 -15 -4 -11 2 -12
27 -7 100 21 208 25 299 11 52 -8 105 -17 119 -21 52 -12 -6 14 -70 32 -72 20
-263 27 -279 11z"/>
<path d="M880 1660 c-21 -7 -21 -8 -5 -9 11 0 27 4 35 9 18 11 5 11 -30 0z"/>
<path d="M1010 1590 c-82 -8 -150 -38 -179 -79 -12 -17 -20 -31 -18 -31 3 0
28 16 57 35 58 39 98 52 188 61 34 4 65 11 68 15 6 10 -18 10 -116 -1z"/>
<path d="M1720 1801 c0 -5 5 -13 10 -16 6 -3 10 -2 10 4 0 5 -4 13 -10 16 -5
3 -10 2 -10 -4z"/>
<path d="M2844 1525 c-7 -16 3 -35 18 -35 5 0 7 8 4 17 -4 9 -1 20 6 25 10 6
8 8 -5 8 -10 0 -20 -7 -23 -15z"/>
<path d="M2715 1489 c-4 -6 -5 -13 -2 -16 7 -7 27 6 27 18 0 12 -17 12 -25 -2z"/>
<path d="M2694 1416 c-8 -22 3 -33 18 -18 9 9 9 15 0 24 -9 9 -13 7 -18 -6z"/>
<path d="M3195 890 c4 -6 11 -8 16 -5 14 9 11 15 -7 15 -8 0 -12 -5 -9 -10z"/>
<path d="M3158 883 c7 -3 16 -2 19 1 4 3 -2 6 -13 5 -11 0 -14 -3 -6 -6z"/>
<path d="M3108 873 c6 -2 18 -2 25 0 6 3 1 5 -13 5 -14 0 -19 -2 -12 -5z"/>
<path d="M2975 845 l-40 -14 40 6 c42 6 85 23 55 22 -8 0 -33 -7 -55 -14z"/>
<path d="M2842 812 c-9 -7 -8 -13 8 -27 11 -10 20 -13 20 -7 0 6 -6 13 -12 15
-10 4 -9 8 2 16 17 12 1 15 -18 3z"/>
<path d="M1955 729 c-4 -6 -5 -12 -2 -15 2 -3 7 2 10 11 7 17 1 20 -8 4z"/>
<path d="M2731 741 c-8 -5 -23 -7 -34 -5 -37 7 -4 -14 113 -71 63 -31 118 -62
122 -68 6 -9 12 -9 28 1 11 6 29 12 39 12 11 0 22 3 24 8 7 11 -46 12 -60 1
-8 -7 -47 8 -123 46 -94 47 -110 58 -100 70 14 17 11 19 -9 6z"/>
<path d="M3078 563 c7 -3 16 -2 19 1 4 3 -2 6 -13 5 -11 0 -14 -3 -6 -6z"/>
<path d="M3880 1767 c0 -3 12 -12 26 -22 15 -9 23 -12 20 -6 -7 11 -46 35 -46
28z"/>
<path d="M1025 1425 l-30 -15 30 4 c29 4 29 4 9 -12 -11 -10 -31 -25 -45 -34
-13 -9 11 -3 56 14 44 17 114 37 155 44 l75 14 -75 -5 c-41 -3 -91 -7 -110
-10 -29 -4 -31 -3 -10 4 l25 9 -25 1 c-14 0 -38 -6 -55 -14z"/>
<path d="M816 1321 c-16 -16 -27 -34 -25 -39 2 -5 16 8 31 29 33 47 31 49 -6
10z"/>
<path d="M1252 1274 c-28 -14 -75 -51 -105 -84 -74 -80 -149 -190 -129 -190 5
0 16 14 23 32 13 32 135 169 147 166 4 -1 27 9 52 21 25 13 67 32 95 42 36 13
43 18 25 18 -29 1 -97 -29 -143 -61 -17 -12 -27 -16 -23 -9 5 7 36 31 69 52
69 45 64 51 -11 13z"/>
<path d="M1153 1080 c-34 -56 -57 -180 -33 -180 6 0 10 15 10 33 0 41 10 78
20 72 10 -6 33 67 28 91 -3 16 -7 13 -25 -16z"/>
<path d="M1407 1033 c-20 -16 -48 -36 -61 -46 -29 -20 -110 -151 -104 -168 2
-6 21 18 42 54 42 72 81 117 136 160 19 15 32 27 29 27 -3 0 -22 -12 -42 -27z"/>
<path d="M1715 879 c-59 -31 -101 -65 -126 -101 -21 -31 -19 -30 22 9 24 22
76 57 114 77 40 20 61 35 50 36 -11 0 -38 -9 -60 -21z"/>
<path d="M1440 734 c-17 -20 -29 -39 -26 -42 3 -3 7 -3 9 -1 2 2 15 21 30 42
35 47 29 48 -13 1z"/>
</g>
</svg>
