<?xml version="1.0" encoding="UTF-8"?>
<svg version="1.1" xmlns="http://www.w3.org/2000/svg" width="243" height="115">
<path d="M0 0 C6.6 0 13.2 0 20 0 C20.33 1.32 20.66 2.64 21 4 C20.34 4.66 19.68 5.32 19 6 C18.82511746 8.43744897 18.76822595 10.7593608 18.8046875 13.1953125 C18.80893234 14.25647781 18.80893234 14.25647781 18.81326294 15.33908081 C18.82446863 17.6012251 18.84957321 19.86297515 18.875 22.125 C18.88502933 23.65754637 18.89415526 25.19009894 18.90234375 26.72265625 C18.92440914 30.48192301 18.95894104 34.24089464 19 38 C19.45890625 37.34193359 19.9178125 36.68386719 20.390625 36.00585938 C23.55537146 31.47482006 26.72901445 26.9553079 30 22.5 C30.66128906 21.58734375 31.32257812 20.6746875 32.00390625 19.734375 C33.32839162 17.92001148 34.66949654 16.11765774 36.02734375 14.328125 C36.65769531 13.47734375 37.28804687 12.6265625 37.9375 11.75 C38.50339844 11.00234375 39.06929687 10.2546875 39.65234375 9.484375 C41.49531674 6.43041092 41.49531674 6.43041092 42 0 C48.6 0 55.2 0 62 0 C60.8426333 5.78683349 60.30868511 5.61155739 56 9 C54.10380984 11.47751937 52.46476406 14.10537765 50.8125 16.75 C49.26222558 19.22039312 47.67877363 21.61109027 46 24 C45.34 24 44.68 24 44 24 C43.773125 24.680625 43.54625 25.36125 43.3125 26.0625 C42.15644916 28.64985188 41.03883229 30.30851707 39.3125 32.5 C37.23600575 35.2507133 37.23600575 35.2507133 37.125 38.6875 C37.41375 39.450625 37.7025 40.21375 38 41 C38.12375 41.7425 38.2475 42.485 38.375 43.25 C38.58125 43.8275 38.7875 44.405 39 45 C39.99 45.33 40.98 45.66 42 46 C43.5703125 48.14453125 43.5703125 48.14453125 45.125 50.8125 C45.90230469 52.12154297 45.90230469 52.12154297 46.6953125 53.45703125 C47.8390932 55.68637627 48.53256809 57.55453305 49 60 C49.66 60 50.32 60 51 60 C53.1150511 63.23724548 55.07850336 66.52792478 57.015625 69.87304688 C59.14240742 73.42308766 61.04919756 76.26302435 64.328125 78.83203125 C65.20984375 79.54746094 66.0915625 80.26289062 67 81 C67 81.99 67 82.98 67 84 C59.41 84 51.82 84 44 84 C43.34 81.69 42.68 79.38 42 77 C40.33015848 73.78548382 40.33015848 73.78548382 38.3125 70.6875 C37.96380859 70.13280029 37.61511719 69.57810059 37.25585938 69.0065918 C34.41511887 64.53037072 31.38414105 60.20024595 28.25 55.92578125 C27 54 27 54 27 52 C23.57421051 55.17539556 23.57421051 55.17539556 21 59 C20.34 59 19.68 59 19 59 C18.97091643 62.41664873 18.95317309 65.8332655 18.9375 69.25 C18.92912109 70.21808594 18.92074219 71.18617187 18.91210938 72.18359375 C18.90888672 73.11816406 18.90566406 74.05273438 18.90234375 75.015625 C18.89710693 75.87446289 18.89187012 76.73330078 18.88647461 77.61816406 C18.9363268 80.30084779 18.9363268 80.30084779 20 84 C13.4 84 6.8 84 0 84 C0.33 82.68 0.66 81.36 1 80 C1.09321166 77.58157077 1.12792288 75.16070292 1.12939453 72.74047852 C1.13114685 72.01640808 1.13289917 71.29233765 1.13470459 70.54632568 C1.13909914 68.15716136 1.13619324 65.76807131 1.1328125 63.37890625 C1.1334863 61.71508266 1.13445697 60.05125917 1.13571167 58.38743591 C1.13718546 54.90142886 1.13504459 51.41544744 1.13037109 47.92944336 C1.12467844 43.46619655 1.1279519 39.00300995 1.13394356 34.53976536 C1.13756155 31.10393319 1.13640481 27.66811524 1.13381577 24.23228264 C1.1331497 22.58688284 1.13396373 20.94148174 1.13629532 19.29608345 C1.13884165 16.99365969 1.13495315 14.6913326 1.12939453 12.38891602 C1.12859894 11.07971695 1.12780334 9.77051788 1.12698364 8.42164612 C1.08039968 4.71033301 1.08039968 4.71033301 0 0 Z " fill="#010101" transform="translate(7,17)"/>
<path d="M0 0 C3.48373069 2.09498626 6.11942101 4.24036357 8.1875 7.8125 C8.1875 8.8025 8.1875 9.7925 8.1875 10.8125 C8.8475 10.8125 9.5075 10.8125 10.1875 10.8125 C11.35985075 15.50605607 11.39074367 20.10295838 11.46875 24.91015625 C11.49636414 26.2170768 11.49636414 26.2170768 11.52453613 27.55039978 C11.60291822 31.26533203 11.67092971 34.98043682 11.73974609 38.69555664 C11.79157053 41.4130112 11.84877177 44.13031634 11.90625 46.84765625 C11.91982544 47.68627701 11.93340088 48.52489777 11.9473877 49.38893127 C11.96410522 50.17332077 11.98082275 50.95771027 11.99804688 51.76586914 C12.01057495 52.45250137 12.02310303 53.13913361 12.03601074 53.84657288 C12.16059265 56.1788392 12.16059265 56.1788392 13.1875 59.8125 C7.5775 59.8125 1.9675 59.8125 -3.8125 59.8125 C-4.1425 59.1525 -4.4725 58.4925 -4.8125 57.8125 C-5.62847656 58.13347656 -6.44445312 58.45445313 -7.28515625 58.78515625 C-14.3213736 60.83446429 -23.30952854 61.31116697 -30.3359375 58.97265625 C-32.22699405 57.74635975 -33.43824847 56.59377508 -34.8125 54.8125 C-35.23789063 54.27753906 -35.66328125 53.74257812 -36.1015625 53.19140625 C-39.95876264 47.09073256 -39.87377995 39.75041964 -38.8125 32.8125 C-36.60625936 27.71679582 -33.5174958 23.80406229 -28.8125 20.8125 C-27.8225 20.8125 -26.8325 20.8125 -25.8125 20.8125 C-25.8125 20.1525 -25.8125 19.4925 -25.8125 18.8125 C-18.68299629 16.91129901 -12.17509293 16.58825859 -4.8125 16.8125 C-5.54278028 13.71121285 -5.54278028 13.71121285 -7.9375 12.125 C-12.28512172 10.14021617 -15.68713346 10.07997075 -20.2265625 11.64453125 C-24.81009476 13.31588019 -24.81009476 13.31588019 -27.8125 16.8125 C-31.47378752 16.60328357 -33.29198819 15.66391649 -35.6875 13 C-37.8125 9.8125 -37.8125 9.8125 -37.625 7.4375 C-37.356875 6.90125 -37.08875 6.365 -36.8125 5.8125 C-36.1525 5.8125 -35.4925 5.8125 -34.8125 5.8125 C-34.4825 4.8225 -34.1525 3.8325 -33.8125 2.8125 C-24.51862099 -3.94841609 -10.34717895 -4.82154049 0 0 Z M-22.125 31.9375 C-24.2981134 34.35207044 -24.66494811 36.61347261 -24.91796875 39.80859375 C-24.75970648 42.81557691 -23.73628898 44.54517728 -21.8125 46.8125 C-17.00002651 48.41665783 -13.20210741 48.38931817 -8.5 46.4375 C-5.7792257 44.93870781 -5.7792257 44.93870781 -3.8125 42.8125 C-3.56889927 39.68435486 -3.56889927 39.68435486 -3.6875 36.1875 C-3.70554687 34.99898437 -3.72359375 33.81046875 -3.7421875 32.5859375 C-3.76539062 31.67070313 -3.78859375 30.75546875 -3.8125 29.8125 C-10.89789422 28.7762961 -15.58405402 28.75541817 -22.125 31.9375 Z " fill="#020202" transform="translate(117.8125,41.1875)"/>
<path d="M0 0 C2.125 1.80078125 2.125 1.80078125 3.08984375 4.30078125 C3.14825795 8.45467986 0.90870367 9.88128715 -1.875 12.80078125 C-4.98987222 12.32883091 -7.31144238 11.5949122 -10.1875 10.23828125 C-15.10176321 8.32255153 -19.32317322 7.78005054 -24.375 9.80078125 C-24.87 10.13078125 -25.365 10.46078125 -25.875 10.80078125 C-25.63953527 12.7461848 -25.63953527 12.7461848 -24.875 14.80078125 C-23.34376739 16.0097631 -23.34376739 16.0097631 -21.375 16.80078125 C-20.65441406 17.13078125 -19.93382812 17.46078125 -19.19140625 17.80078125 C-18.42699219 18.13078125 -17.66257813 18.46078125 -16.875 18.80078125 C-15.35374782 19.46649161 -13.83291268 20.13315579 -12.3125 20.80078125 C-11.57 21.125625 -10.8275 21.45046875 -10.0625 21.78515625 C-6.875334 23.26491189 -3.89274782 25.00297404 -0.875 26.80078125 C-0.875 27.46078125 -0.875 28.12078125 -0.875 28.80078125 C0.115 29.13078125 1.105 29.46078125 2.125 29.80078125 C4.45819272 33.1171923 4.4237371 36.26997812 4.4375 40.23828125 C4.45425781 41.35074219 4.47101563 42.46320313 4.48828125 43.609375 C3.97170496 48.14746998 2.5008922 50.65547136 -0.99609375 53.56640625 C-1.76050781 54.05625 -2.52492187 54.54609375 -3.3125 55.05078125 C-4.07433594 55.5509375 -4.83617187 56.05109375 -5.62109375 56.56640625 C-13.42683745 60.84130228 -25.77091744 59.90177913 -34.20703125 58.08203125 C-39.01109141 56.29581398 -42.13090706 54.29111516 -44.875 49.80078125 C-42.25 44.92578125 -42.25 44.92578125 -38.875 43.80078125 C-38.545 42.81078125 -38.215 41.82078125 -37.875 40.80078125 C-34.0036412 41.33846997 -31.90315875 42.37825425 -28.875 44.80078125 C-25.96413331 45.77107015 -23.97276315 45.96545972 -20.9375 45.98828125 C-19.65552734 46.00955078 -19.65552734 46.00955078 -18.34765625 46.03125 C-15.73590697 45.78781681 -14.11999348 45.11860805 -11.875 43.80078125 C-11.875 42.15078125 -11.875 40.50078125 -11.875 38.80078125 C-16.87763458 36.20366883 -21.85479796 33.74864707 -27.125 31.73828125 C-31.16525608 30.15399186 -34.50998809 28.56181666 -37.875 25.80078125 C-38.75 23.55078125 -38.75 23.55078125 -38.875 21.80078125 C-39.535 21.80078125 -40.195 21.80078125 -40.875 21.80078125 C-42.30097611 18.94882903 -42.0070252 16.4761695 -42 13.30078125 C-42.00257813 12.13546875 -42.00515625 10.97015625 -42.0078125 9.76953125 C-41.875 6.80078125 -41.875 6.80078125 -40.875 4.80078125 C-40.215 4.80078125 -39.555 4.80078125 -38.875 4.80078125 C-38.62878906 4.1975 -38.38257813 3.59421875 -38.12890625 2.97265625 C-30.96524193 -9.43543521 -10.06996333 -5.29493996 0 0 Z " fill="#020202" transform="translate(225.875,43.19921875)"/>
<path d="M0 0 C5.61 0 11.22 0 17 0 C17.02505615 2.33143066 17.0501123 4.66286133 17.07592773 7.06494141 C17.15948215 14.77632425 17.24815755 22.48764213 17.33933926 30.19893837 C17.39445444 34.87332493 17.44785586 39.54771786 17.49731445 44.22216797 C17.54512665 48.7350123 17.5974749 53.24778349 17.65294075 57.76054001 C17.67328813 59.48045399 17.69201344 61.20038796 17.70907402 62.92033768 C17.73328743 65.33319555 17.76331773 67.74591727 17.79467773 70.15869141 C17.80331093 71.22037033 17.80331093 71.22037033 17.81211853 72.30349731 C17.87209959 76.37554452 18.32144582 79.92867495 19 84 C12.73 84 6.46 84 0 84 C0.33 82.68 0.66 81.36 1 80 C1.09309059 77.61747597 1.1279213 75.23248604 1.12939453 72.84814453 C1.13114685 72.13543396 1.13289917 71.42272339 1.13470459 70.68841553 C1.13909923 68.33652295 1.13619289 65.98470583 1.1328125 63.6328125 C1.13348637 61.99380479 1.1344571 60.35479717 1.13571167 58.71578979 C1.13718553 55.28105721 1.13504462 51.84635065 1.13037109 48.41162109 C1.124683 44.01797468 1.12794895 39.62438947 1.13394356 35.23074532 C1.13756524 31.84548485 1.13640304 28.46023878 1.13381577 25.07497787 C1.13315048 23.45552437 1.13396096 21.83606954 1.13629532 20.21661758 C1.13884724 17.94792496 1.13494518 15.67932993 1.12939453 13.41064453 C1.12820114 11.47682419 1.12820114 11.47682419 1.12698364 9.50393677 C1.05935424 5.56329313 1.05935424 5.56329313 0 0 Z " fill="#010101" transform="translate(136,17)"/>
<path d="M0 0 C4.62 0 9.24 0 14 0 C13.69080896 4.20860031 13.37777549 8.41685483 13.0625 12.625 C12.93198242 14.40970703 12.93198242 14.40970703 12.79882812 16.23046875 C12.71181641 17.38417969 12.62480469 18.53789063 12.53515625 19.7265625 C12.41732788 21.31331787 12.41732788 21.31331787 12.29711914 22.93212891 C12.00112384 25.9883959 11.54058596 28.9782631 11 32 C4.84765625 32.09765625 4.84765625 32.09765625 3 32 C1.48985901 30.48985901 1.68152194 29.01772997 1.46484375 26.9140625 C1.3776709 26.07004883 1.29049805 25.22603516 1.20068359 24.35644531 C1.11383301 23.45506836 1.02698242 22.55369141 0.9375 21.625 C0.84807129 20.7184668 0.75864258 19.81193359 0.66650391 18.87792969 C0.07281458 12.55655194 -0.18681918 6.35185224 0 0 Z " fill="#030303" transform="translate(162,16)"/>
<path d="M0 0 C-0.66 0 -1.32 0 -2 0 C-2 0.66 -2 1.32 -2 2 C-2.66 2.474375 -3.32 2.94875 -4 3.4375 C-4.99 4.2109375 -4.99 4.2109375 -6 5 C-6 5.99 -6 6.98 -6 8 C-6.99 8 -7.98 8 -9 8 C-9.33 7.01 -9.66 6.02 -10 5 C-6.9064303 0.51965767 -5.37804653 -1.61341396 0 0 Z " fill="#0B0A0D" transform="translate(191,87)"/>
<path d="M0 0 C2.99324263 1.0975223 3.84610901 1.67682892 5.25 4.625 C5.4975 5.40875 5.745 6.1925 6 7 C5.01 7.495 5.01 7.495 4 8 C0 2.25 0 2.25 0 0 Z " fill="#090909" transform="translate(49,68)"/>
<path d="M0 0 C0 2 0 4 0 6 C-1.32 5.67 -2.64 5.34 -4 5 C-3.6875 3.0625 -3.6875 3.0625 -3 1 C-2.01 0.67 -1.02 0.34 0 0 Z " fill="#0A0A0B" transform="translate(84,46)"/>
</svg>
